<?xml version="1.0" standalone="no"?>
<!DOCTYPE svg PUBLIC "-//W3C//DTD SVG 20010904//EN"
 "http://www.w3.org/TR/2001/REC-SVG-20010904/DTD/svg10.dtd">
<svg version="1.0" xmlns="http://www.w3.org/2000/svg"
 width="456.000000pt" height="456.000000pt" viewBox="0 0 456.000000 456.000000"
 preserveAspectRatio="xMidYMid meet">
<metadata>
Created by potrace 1.14, written by Peter Selinger 2001-2017
</metadata>
<g transform="translate(0.000000,456.000000) scale(0.100000,-0.100000)"
fill="#000000" stroke="none">
<path d="M17 4553 c-14 -13 -6 -24 12 -18 11 3 22 1 26 -5 3 -5 1 -10 -4 -10
-6 0 -11 -7 -11 -16 0 -8 5 -12 10 -9 6 4 10 3 9 -2 -5 -28 3 -53 17 -53 10 0
12 -4 7 -12 -4 -7 -8 -22 -8 -32 0 -34 -23 -29 -27 6 -2 25 -8 34 -26 36 -22
3 -31 -13 -11 -20 7 -2 12 -17 13 -33 1 -23 6 -28 28 -29 23 -1 28 4 37 39 30
115 37 156 30 161 -5 3 -9 0 -9 -6 0 -6 -4 -8 -10 -5 -5 3 -10 0 -10 -7 0 -8
-5 -6 -11 5 -10 17 -49 23 -62 10z"/>
<path d="M616 4519 c-3 -24 -8 -105 -11 -179 -3 -74 -8 -196 -11 -270 l-7
-135 -54 -75 c-71 -99 -94 -136 -117 -188 -25 -55 -13 -65 24 -22 24 28 30 31
35 18 4 -9 0 -29 -8 -45 -17 -32 -10 -48 31 -71 29 -16 38 -10 45 28 4 16 12
30 19 30 10 0 12 -22 8 -97 -4 -80 -9 -103 -28 -128 -33 -45 -90 -190 -108
-274 -11 -54 -13 -103 -9 -175 4 -56 8 -173 10 -261 2 -147 5 -169 36 -275 32
-108 34 -124 33 -260 0 -80 -6 -242 -13 -360 -6 -118 -14 -249 -16 -290 -7
-126 -17 -286 -29 -477 -7 -125 -8 -184 -1 -187 12 -4 111 17 198 42 37 11 63
25 69 37 24 45 214 255 231 255 3 0 7 -6 10 -12 2 -7 3 -5 1 5 -2 16 78 87
164 147 14 9 22 25 22 43 0 25 2 27 20 17 21 -11 28 -40 10 -40 -5 0 -10 -7
-10 -15 0 -8 5 -15 11 -15 5 0 7 -4 4 -10 -3 -5 -13 -10 -21 -10 -8 0 -12 5
-9 10 3 6 0 10 -8 10 -8 0 -17 -7 -21 -15 -3 -8 -17 -20 -31 -27 -14 -6 -25
-17 -25 -24 0 -7 -5 -14 -12 -16 -7 -3 -12 -18 -13 -34 0 -25 -4 -29 -29 -29
-24 0 -31 -6 -39 -30 -14 -42 -51 -62 -59 -32 -2 9 -11 4 -26 -15 -16 -19 -18
-26 -8 -22 9 3 16 10 16 15 0 5 5 9 10 9 6 0 10 -9 10 -20 0 -11 -6 -20 -14
-20 -7 0 -19 -6 -25 -14 -9 -10 -8 -15 4 -20 22 -8 18 -36 -5 -36 -11 0 -20
-7 -20 -15 0 -27 -22 -63 -36 -58 -9 3 -14 -1 -14 -12 0 -9 4 -14 9 -11 5 3
11 -13 14 -36 6 -44 -2 -73 -12 -47 -4 11 -13 13 -31 8 -17 -5 -19 -7 -7 -8
21 -1 47 -24 47 -40 0 -6 5 -11 10 -11 6 0 10 5 10 10 0 6 4 10 10 10 5 0 7
-7 4 -15 -4 -8 -1 -15 5 -15 6 0 11 -7 11 -15 0 -8 -7 -15 -15 -15 -8 0 -15
-7 -15 -15 0 -8 7 -15 16 -15 10 0 14 -6 11 -14 -7 -18 11 -36 32 -29 12 4 12
1 -3 -11 -18 -15 -18 -16 5 -26 27 -12 62 -66 53 -81 -3 -5 -16 -6 -30 -3 -15
4 -24 2 -24 -6 0 -8 12 -11 35 -8 19 2 35 0 35 -4 0 -11 -43 -27 -80 -30 -27
-2 -45 -28 -20 -28 6 0 10 4 10 9 0 5 20 11 44 13 36 2 46 0 50 -14 2 -10 0
-21 -5 -24 -5 -3 -7 -9 -4 -14 3 -4 -5 -6 -17 -2 -23 5 -23 5 -5 -16 11 -12
26 -18 35 -15 13 4 14 3 6 -6 -8 -9 -22 -7 -58 9 -26 11 -49 20 -51 20 -1 0
-5 -14 -7 -30 -3 -17 -1 -30 4 -30 4 0 8 -7 8 -15 0 -8 4 -15 8 -15 4 0 14
-16 21 -36 11 -31 11 -37 -5 -48 -10 -8 -14 -18 -9 -25 5 -9 12 -7 27 9 11 12
21 27 22 33 6 29 19 45 37 50 12 3 19 14 19 30 0 14 4 29 10 32 16 10 9 -75
-8 -91 -15 -16 -9 -49 8 -39 5 3 10 -1 10 -9 0 -9 -7 -16 -16 -16 -12 0 -15
-6 -11 -22 7 -26 -18 -59 -39 -51 -8 3 -14 0 -14 -6 0 -6 -12 -11 -27 -11 -20
0 -24 -3 -16 -11 8 -8 17 -7 34 2 17 9 24 9 27 0 2 -7 17 1 35 19 l32 31 6
-23 c3 -15 -1 -27 -13 -36 -20 -14 -24 -32 -8 -32 6 0 10 7 10 16 0 11 5 14
18 9 36 -15 52 -17 52 -7 0 6 -12 13 -27 15 l-28 4 29 2 c24 1 27 3 16 16 -7
9 -14 36 -14 60 -1 29 -6 45 -13 45 -9 0 -7 6 4 19 16 20 17 20 36 -2 12 -13
21 -17 24 -11 5 14 99 -29 106 -48 2 -8 8 -9 13 -4 5 5 4 11 -3 13 -7 3 -13
13 -13 22 0 22 45 65 59 56 6 -3 11 1 11 11 0 16 1 16 20 -1 11 -10 20 -26 20
-35 0 -10 7 -20 15 -24 8 -3 15 -16 15 -28 1 -21 2 -22 14 -5 12 15 14 15 19
2 4 -9 13 -12 23 -8 12 4 15 3 10 -5 -4 -7 -2 -20 3 -29 6 -10 11 -14 11 -10
0 4 9 3 19 -3 14 -7 22 -7 26 0 5 8 11 7 21 -1 11 -9 14 -8 14 3 0 8 -5 19
-12 26 -7 7 -9 12 -4 12 11 0 37 -27 35 -37 -4 -25 2 -34 21 -28 11 4 20 2 20
-4 0 -6 -9 -11 -21 -11 -11 0 -18 -4 -15 -9 3 -4 25 -7 48 -6 51 3 73 -6 38
-16 l-25 -7 23 -7 c12 -4 22 -11 22 -16 0 -14 108 -11 113 4 4 9 6 9 6 0 1
-17 311 -19 311 -2 0 8 4 9 13 0 10 -7 107 -10 318 -10 167 1 291 5 274 9 -16
4 -22 8 -13 9 9 0 23 4 32 7 11 4 16 1 16 -10 0 -11 9 -16 28 -15 l27 0 -25
11 -25 11 33 7 c44 10 52 20 16 20 -16 0 -35 4 -42 9 -23 14 12 21 67 12 50
-8 84 0 62 13 -19 12 -12 26 11 23 15 -1 28 8 42 30 26 40 36 41 36 4 0 -21
-6 -32 -20 -36 -23 -7 -27 -25 -6 -25 8 0 16 -6 19 -12 3 -10 7 -10 19 -1 12
10 18 10 34 -2 10 -8 28 -15 40 -15 11 0 24 -4 30 -10 5 -5 19 -7 30 -4 19 5
22 13 21 65 0 42 -4 59 -14 59 -14 0 -17 12 -6 23 3 4 12 2 20 -5 11 -8 12 -7
7 6 -8 21 -53 21 -70 -1 -7 -10 -14 -29 -15 -43 -1 -17 -3 -20 -6 -8 -5 19
-23 25 -23 7 0 -5 -4 -7 -10 -4 -19 12 -11 45 11 45 11 0 18 4 15 9 -3 5 1 12
10 15 9 4 14 13 10 21 -6 17 22 55 41 55 17 0 37 -37 22 -42 -5 -2 4 -19 21
-37 16 -19 30 -45 30 -58 0 -19 5 -23 31 -23 16 0 28 4 25 9 -3 5 0 11 7 14 9
3 12 17 9 39 -4 32 -3 32 12 13 14 -19 15 -19 16 -1 0 11 5 16 14 13 23 -9 29
40 9 76 -10 18 -24 36 -30 40 -17 10 -17 50 -1 45 7 -3 26 -32 44 -67 35 -68
34 -90 -2 -133 -12 -15 -24 -31 -26 -36 -4 -11 -114 -92 -125 -92 -4 0 -19 -9
-33 -20 l-25 -20 120 0 121 0 12 34 c7 18 10 41 6 50 -4 12 0 16 15 16 12 0
21 -4 21 -10 0 -5 -6 -7 -14 -4 -11 4 -13 0 -9 -15 6 -25 16 -26 37 -6 8 8 23
15 33 15 15 0 14 -2 -5 -16 -26 -18 -30 -64 -6 -64 10 0 13 6 9 19 -3 10 1 23
8 29 11 9 13 6 9 -18 l-4 -30 80 0 c68 0 81 3 85 17 4 17 5 17 6 1 2 -26 28
-22 35 5 9 33 8 34 -16 40 -16 5 -19 9 -11 19 6 7 9 28 7 46 -3 23 0 32 11 32
28 0 15 20 -12 21 -16 0 -22 3 -15 6 14 6 16 43 2 43 -6 0 -4 12 4 29 15 28
58 49 64 31 2 -6 15 -10 28 -10 15 0 24 -6 24 -16 0 -12 -6 -15 -25 -10 -14 4
-25 2 -25 -4 0 -5 9 -10 20 -10 11 0 20 -7 20 -15 0 -8 8 -15 18 -15 18 0 47
-53 37 -69 -3 -6 -12 -8 -20 -4 -9 3 -22 0 -30 -7 -16 -13 -20 -3 -9 24 5 12
10 13 25 5 15 -7 19 -6 19 6 0 10 -7 14 -22 11 -13 -3 -26 -5 -30 -5 -4 -1 -9
-10 -13 -20 -3 -11 -11 -19 -18 -17 -7 1 -9 1 -4 -1 4 -3 8 -19 8 -36 1 -24 3
-26 6 -9 7 34 25 26 22 -10 -3 -52 0 -78 10 -78 9 0 11 13 13 93 1 26 18 40
18 15 0 -9 4 -8 10 2 8 13 11 11 16 -7 4 -13 13 -23 20 -23 18 0 18 -16 0 -23
-17 -7 -18 -57 0 -57 7 0 14 10 16 23 2 13 10 22 19 21 14 -1 15 4 8 29 -5 17
-6 33 -4 36 3 2 5 -2 5 -10 1 -11 3 -11 13 2 7 9 18 18 26 20 10 4 10 7 -3 18
-14 11 -16 11 -16 -3 0 -22 -17 -21 -22 2 -6 27 2 58 12 42 12 -20 32 -1 26
25 -4 15 2 31 19 49 31 33 31 44 3 48 -31 4 -34 26 -4 34 28 7 36 24 11 24 -8
0 -15 5 -15 10 0 6 12 10 26 10 15 0 23 4 19 10 -4 6 -1 18 7 27 11 15 10 16
-9 11 -20 -5 -23 -2 -23 23 0 16 4 29 9 29 5 0 7 9 4 20 -4 14 0 20 12 20 17
0 17 1 0 20 -14 15 -15 20 -4 20 19 0 40 49 30 69 -5 9 -5 25 0 36 13 33 11
36 -29 34 -36 -2 -80 -33 -63 -44 5 -3 11 1 14 7 6 17 47 -19 47 -41 0 -14 -2
-14 -10 -1 -6 10 -10 11 -10 3 0 -7 -7 -13 -15 -13 -8 0 -15 5 -15 10 0 6 -7
10 -16 10 -8 0 -13 -4 -10 -9 4 -5 0 -12 -6 -14 -7 -3 7 -6 32 -7 36 -2 40 -3
20 -9 -17 -5 -21 -9 -12 -15 17 -10 15 -26 -3 -26 -8 0 -15 5 -15 10 0 6 -4
10 -9 10 -9 0 -5 -16 15 -72 4 -10 11 -18 16 -18 14 0 5 -43 -9 -48 -8 -2 -13
5 -13 16 0 56 -70 62 -200 18 -93 -31 -205 -62 -265 -72 -29 -5 -87 -21 -107
-29 -11 -4 -18 0 -23 14 -3 12 -11 21 -16 21 -6 0 -6 8 1 20 9 17 8 20 -10 20
-24 0 -27 15 -4 24 23 9 5 29 -22 23 -13 -2 -24 0 -24 4 0 5 7 9 15 9 8 0 15
5 15 10 0 6 -5 10 -11 10 -6 0 -9 6 -6 14 3 8 1 17 -6 19 -7 3 -4 8 7 13 13 5
21 3 24 -4 2 -7 13 -12 25 -12 19 1 18 3 -8 17 -59 32 -76 73 -30 73 14 0 25
5 25 11 0 6 -10 9 -22 8 -27 -4 -51 9 -43 22 4 5 1 9 -4 9 -6 0 -11 9 -11 21
0 11 5 17 10 14 6 -3 10 3 10 15 0 12 4 19 9 16 5 -4 17 -3 26 0 13 5 14 9 3
15 -7 4 -13 14 -14 21 -3 35 -4 41 -10 35 -4 -3 -13 1 -21 9 -16 16 -10 49 7
39 15 -10 12 81 -3 94 -8 6 -17 8 -20 4 -10 -9 -9 2 3 32 5 14 14 23 20 20 5
-3 10 -1 10 4 0 6 -5 11 -10 11 -6 0 -5 8 2 20 7 11 23 20 35 20 24 0 31 14
13 25 -6 4 -4 12 5 22 9 9 14 22 11 30 -3 7 1 16 9 19 8 4 15 13 15 22 0 12
-3 13 -12 4 -12 -12 -58 -17 -58 -6 0 3 7 12 15 20 8 9 15 23 14 32 0 12 -3
11 -9 -5 -5 -13 -14 -23 -20 -23 -12 0 -13 13 -1 25 5 6 17 39 26 75 9 35 23
77 31 93 9 15 12 37 8 49 -4 14 -2 18 5 14 7 -5 9 -1 5 8 -3 9 -2 16 4 16 5 0
13 25 17 55 3 30 11 55 16 55 5 0 7 24 4 55 -3 30 -2 55 3 55 4 0 9 21 11 47
3 58 24 85 60 78 23 -5 24 -4 5 4 -24 11 -38 63 -30 114 11 64 15 287 6 287
-5 0 -11 -4 -15 -9 -7 -13 -35 -235 -35 -284 0 -23 -4 -36 -10 -32 -5 3 -11 1
-11 -4 -1 -6 -2 -15 -3 -21 0 -5 -10 -15 -20 -23 -12 -9 -17 -20 -13 -31 4
-10 1 -16 -8 -16 -9 0 -15 -9 -15 -23 0 -12 -9 -28 -20 -35 -11 -6 -27 -29
-36 -50 -14 -34 -16 -36 -29 -19 -9 13 -15 15 -20 7 -4 -7 -3 -16 3 -22 7 -7
7 -22 0 -46 -8 -30 -7 -38 9 -50 12 -10 14 -16 6 -19 -7 -2 -9 -11 -6 -19 3
-8 -1 -14 -8 -14 -9 0 -7 -5 5 -11 14 -9 20 -8 27 2 4 7 11 10 16 6 4 -5 1
-12 -7 -17 -12 -7 -12 -12 -2 -22 9 -9 8 -16 -9 -34 -11 -12 -21 -28 -23 -37
-3 -25 -32 -46 -56 -40 -12 3 -17 9 -11 12 16 10 1 48 -26 67 -21 13 -27 14
-34 3 -6 -11 -11 -11 -21 -1 -18 18 -27 15 -21 -8 3 -11 12 -20 19 -20 11 0
13 -7 8 -27 -5 -23 -4 -26 7 -16 19 19 27 16 31 -9 2 -15 10 -23 22 -23 11 0
21 -5 23 -11 2 -7 -6 -10 -22 -6 -17 3 -31 -2 -43 -16 -9 -11 -26 -22 -37 -25
-19 -4 -18 -5 2 -6 12 0 28 6 37 14 17 18 36 20 36 4 0 -7 7 -17 16 -24 14
-10 15 -14 3 -33 -8 -12 -20 -22 -28 -22 -11 0 -10 5 3 25 16 24 16 25 -9 25
-22 0 -25 -3 -19 -24 4 -16 1 -25 -10 -29 -9 -4 -16 -1 -16 5 0 6 -3 9 -6 6
-3 -4 -1 -15 5 -26 16 -30 -15 -62 -54 -55 -23 4 -27 3 -19 -6 13 -14 7 -58
-9 -68 -6 -3 -7 -1 -3 5 5 8 -2 12 -18 12 -19 0 -26 -5 -26 -19 0 -11 6 -22
13 -25 6 -3 -5 -4 -26 -1 l-37 6 22 -24 c18 -18 28 -21 46 -15 15 5 21 4 17
-2 -3 -6 -10 -10 -16 -10 -16 0 -54 -43 -41 -48 24 -8 0 -22 -26 -15 -23 5
-25 4 -15 -9 11 -12 9 -17 -12 -28 -13 -7 -38 -10 -57 -7 -18 3 -27 3 -20 0 6
-2 10 -9 6 -14 -3 -5 2 -9 10 -9 28 0 17 -17 -14 -24 -17 -3 -30 -9 -29 -13 3
-18 -3 -20 -36 -13 -28 6 -35 5 -35 -7 0 -8 -9 -17 -20 -20 -11 -3 -17 -9 -14
-14 5 -8 -11 -13 -19 -6 -2 1 -12 -6 -21 -16 -13 -13 -27 -16 -47 -12 -20 5
-33 1 -48 -14 -12 -12 -25 -21 -31 -21 -5 0 -20 -12 -34 -27 -21 -22 -27 -24
-40 -14 -9 8 -16 20 -16 27 0 8 -11 14 -26 14 -14 0 -23 -4 -19 -10 4 -6 11
-8 16 -5 5 4 9 2 9 -2 0 -15 -39 -33 -56 -26 -13 5 -15 2 -10 -13 3 -10 2 -25
-3 -32 -14 -23 -23 32 -10 65 8 23 7 30 -7 40 -11 8 -13 13 -5 13 8 0 11 12 9
38 -2 28 1 37 12 37 9 0 30 10 47 23 17 12 38 22 47 22 9 0 16 5 16 10 0 7 6
7 19 1 17 -10 19 -7 17 37 0 26 3 57 7 70 5 12 5 22 0 21 -21 -4 -33 2 -33 16
0 25 -43 39 -81 26 -59 -21 -120 -14 -169 19 -50 33 -81 38 -100 15 -10 -13
-9 -15 11 -16 14 0 18 -3 9 -6 -8 -2 -25 -10 -38 -16 -19 -9 -25 -8 -32 3 -7
12 -12 12 -22 2 -16 -16 -31 -15 -25 2 4 10 -6 15 -33 19 -21 3 -52 12 -69 20
-22 11 -32 12 -42 3 -9 -8 -11 -7 -6 7 4 9 2 17 -3 17 -6 0 -10 -11 -10 -25 0
-20 -5 -25 -24 -25 -19 0 -26 7 -31 29 -6 27 -9 29 -46 24 -26 -4 -39 -2 -39
6 0 14 10 18 79 26 47 5 53 4 47 -11 -5 -12 -2 -15 11 -9 10 3 30 9 46 12 37
8 45 23 11 23 -22 0 -25 2 -14 15 7 9 29 15 51 15 26 0 38 4 36 13 -1 9 21 12
83 14 47 0 105 6 130 13 25 6 63 15 85 19 23 4 46 11 53 15 7 4 46 10 87 13
62 4 75 2 75 -10 0 -16 22 -16 64 2 20 8 32 9 40 1 16 -16 43 -11 49 10 4 17
8 18 30 7 14 -6 23 -15 21 -19 -3 -5 3 -8 13 -8 11 0 28 -7 39 -15 10 -8 29
-15 42 -15 21 0 23 4 18 27 -4 16 -7 47 -8 70 -1 23 -5 40 -10 37 -4 -3 -7 3
-6 13 3 35 -14 84 -28 79 -8 -3 -13 0 -11 7 1 7 -3 11 -9 10 -7 -1 -10 6 -7
17 3 12 0 20 -6 20 -7 0 -9 -5 -5 -11 4 -8 0 -8 -15 0 -11 7 -21 18 -21 26 0
8 -7 15 -15 15 -8 0 -12 -6 -9 -13 4 -10 -3 -12 -26 -9 -16 2 -30 10 -30 16 0
11 -15 15 -64 16 -21 1 -46 23 -46 40 0 7 -6 8 -19 0 -11 -5 -29 -10 -41 -10
-17 0 -20 4 -15 20 5 15 3 18 -9 14 -10 -4 -16 -1 -16 8 0 17 -35 48 -55 48
-9 0 -15 9 -15 24 0 27 24 53 35 36 8 -12 35 -13 35 -1 0 5 -8 12 -17 14 -10
3 -4 4 12 3 35 -3 54 17 55 56 0 24 -6 29 -42 38 -46 13 -118 -1 -139 -26 -6
-8 -15 -11 -20 -8 -5 3 -12 -3 -16 -12 -13 -36 -133 -120 -133 -94 0 5 -18 10
-40 10 -31 0 -40 -4 -41 -17 0 -11 -3 -13 -6 -5 -2 6 -11 12 -19 12 -8 0 -14
4 -14 9 0 5 -14 11 -31 15 -17 3 -28 10 -24 16 3 5 0 10 -8 10 -8 0 -20 14
-27 31 -16 37 -45 50 -91 39 -19 -4 -28 -8 -21 -9 8 -1 33 -21 56 -45 42 -45
55 -84 33 -98 -9 -6 -9 -10 0 -16 9 -6 7 -12 -9 -22 -11 -8 -24 -19 -29 -25
-5 -5 -20 -23 -34 -40 -15 -16 -24 -36 -22 -45 3 -12 -4 -15 -35 -15 -28 0
-42 -5 -49 -17 -5 -10 -16 -15 -24 -12 -9 4 -18 -1 -22 -12 -5 -11 -15 -19
-23 -19 -8 0 -19 -15 -25 -33 -5 -17 -13 -32 -18 -32 -5 0 -4 -7 3 -15 9 -10
9 -15 1 -15 -6 0 -11 -4 -11 -10 0 -5 7 -10 15 -10 18 0 19 -12 3 -28 -9 -9
-9 -18 0 -37 17 -36 5 -55 -32 -54 -29 0 -30 1 -7 10 19 8 21 12 11 24 -7 8
-17 12 -24 8 -7 -4 -7 -1 1 8 11 13 9 15 -10 15 -16 -1 -22 5 -22 19 0 35 -24
67 -46 60 -17 -6 -24 3 -20 27 0 4 -13 20 -29 37 -17 16 -30 27 -30 23 0 -15
-29 35 -30 51 0 14 -5 17 -20 12 -17 -5 -20 -2 -20 20 0 14 -4 24 -9 21 -5 -3
-11 9 -15 26 -4 21 -2 34 6 40 10 6 10 8 0 8 -14 0 -51 39 -52 53 0 5 -7 23
-15 40 -25 53 -65 179 -65 204 0 13 -4 23 -8 23 -4 0 -8 16 -9 35 -1 32 1 34
26 30 l26 -5 -27 12 c-39 17 -47 45 -54 190 -5 113 -2 145 16 222 37 158 38
166 35 217 -1 31 3 55 11 63 7 7 16 31 20 52 6 31 8 35 14 19 4 -11 2 -32 -6
-47 -18 -35 -18 -48 1 -48 17 0 20 -16 5 -25 -9 -6 7 -55 19 -55 3 0 6 -15 6
-32 0 -30 3 -33 30 -33 17 0 35 -4 41 -10 6 -5 21 -17 33 -25 11 -8 21 -21 21
-30 0 -27 30 -60 55 -60 13 0 30 -6 37 -13 14 -14 144 -12 162 2 6 4 39 14 74
21 38 8 68 20 76 31 11 16 15 17 41 3 15 -8 37 -25 49 -38 21 -23 93 -46 80
-25 -3 6 3 13 15 16 12 3 23 15 26 27 11 56 11 76 1 80 -12 5 86 9 147 6 36
-2 37 0 25 19 -9 14 -22 20 -45 19 -18 -1 -33 -5 -33 -10 0 -4 -7 -8 -15 -8
-8 0 -15 5 -15 11 0 5 -4 8 -9 5 -4 -3 -16 3 -26 14 -17 19 -17 20 -1 20 10 0
14 -5 10 -12 -4 -7 -3 -8 5 -4 9 6 9 11 0 22 -13 16 -5 90 13 111 6 7 22 14
37 14 16 1 19 3 9 6 -20 5 -13 33 8 33 8 0 14 5 14 10 0 6 9 10 20 10 23 0 23
-22 0 -32 -12 -5 -11 -7 5 -8 17 -2 16 -3 -5 -10 -25 -8 -25 -8 -2 -9 21 -1
53 20 52 34 -1 25 1 29 10 15 8 -12 10 -11 10 8 0 12 6 22 13 23 6 1 1 5 -13
9 -23 8 -23 8 8 9 30 1 33 -1 27 -21 -6 -17 -4 -20 9 -15 9 4 23 4 31 1 18 -7
20 -54 3 -54 -8 -1 -6 -6 5 -14 11 -8 14 -17 8 -20 -9 -6 -61 -108 -61 -120 0
-3 7 -6 15 -6 9 0 15 9 15 24 0 24 23 56 40 56 10 0 50 -81 50 -99 0 -6 5 -11
11 -11 5 0 8 4 5 9 -3 5 12 13 33 19 35 8 39 7 33 -7 -3 -9 -10 -19 -15 -22
-5 -4 -5 -9 2 -13 6 -4 11 -3 11 3 0 6 9 15 21 21 17 9 23 8 35 -7 19 -26 17
-36 -6 -30 -25 6 -27 -11 -2 -20 9 -4 20 -11 24 -17 5 -7 8 -7 8 2 0 7 5 10
10 7 6 -4 8 -11 5 -16 -4 -5 3 -9 15 -9 11 0 23 -6 26 -13 6 -16 80 -22 89 -7
3 6 1 10 -6 10 -7 0 -10 3 -7 6 11 10 43 11 62 2 15 -8 16 -12 5 -19 -8 -5
-24 -9 -36 -9 -14 0 -23 -6 -23 -15 0 -8 5 -15 10 -15 6 0 23 -9 38 -19 31
-22 132 -39 132 -22 0 6 12 8 30 5 17 -4 30 -2 30 3 0 9 41 15 98 15 15 0 22
6 22 19 0 14 7 19 29 19 19 0 32 6 36 18 3 9 17 31 30 47 22 25 27 28 36 15 9
-13 10 -12 5 2 -3 10 -1 20 4 23 6 4 10 1 10 -6 0 -7 9 -9 22 -6 12 3 29 2 39
-4 17 -9 18 -7 9 16 -13 33 -13 44 0 25 7 -12 10 -12 10 -1 0 7 6 11 14 8 8
-3 17 1 20 9 10 26 7 36 -9 30 -9 -3 -15 0 -15 9 0 16 41 17 52 0 5 -7 8 -6 8
1 0 20 -28 36 -51 29 -12 -4 -19 -3 -16 2 3 5 2 15 -4 23 -7 12 -9 11 -9 -5 0
-16 -2 -17 -10 -5 -6 9 -5 19 3 29 9 11 9 15 -1 18 -6 3 -10 9 -6 14 3 5 -6
13 -19 18 -27 10 -45 31 -28 31 6 0 11 -4 11 -9 0 -5 14 -12 30 -16 17 -4 28
-11 25 -16 -4 -5 1 -6 9 -3 9 3 16 1 16 -6 0 -6 5 -8 11 -5 10 7 -84 105 -101
105 -5 0 -21 5 -37 12 -15 6 -46 13 -67 15 -21 1 -44 7 -50 12 -6 5 -60 9
-120 10 -59 0 -110 2 -113 5 -9 9 131 18 186 12 143 -16 204 -38 271 -97 l35
-31 3 25 c7 54 -46 118 -112 138 -32 9 -66 30 -95 57 -25 24 -39 41 -31 37 8
-4 2 4 -14 16 -20 16 -40 22 -63 20 -19 -1 -33 2 -33 8 0 6 -11 11 -25 11 -14
0 -25 -5 -25 -11 0 -8 -5 -8 -15 1 -9 7 -22 9 -32 4 -23 -10 -56 -13 -67 -7
-4 3 -28 6 -52 7 -35 1 -44 -2 -44 -16 0 -11 -6 -15 -20 -11 -11 3 -20 1 -20
-5 0 -5 -15 -13 -33 -16 -19 -4 -52 -15 -75 -26 -23 -11 -48 -20 -56 -20 -8 0
-16 -4 -18 -10 -1 -5 -19 -11 -40 -12 -20 -2 -36 -5 -36 -8 2 -22 -4 -31 -17
-27 -8 4 -17 2 -20 -3 -4 -6 0 -11 7 -11 7 -1 -16 -5 -52 -9 -45 -5 -67 -4
-72 4 -6 8 -10 8 -15 0 -5 -6 -41 -14 -80 -18 -72 -7 -79 -5 -74 27 1 4 -12
10 -29 13 -16 4 -30 10 -30 15 0 5 -7 9 -15 9 -8 0 -15 8 -16 18 -1 11 -4 9
-9 -8 l-8 -25 -1 27 c-1 27 -21 51 -21 25 0 -23 -36 -27 -51 -6 -9 13 -15 15
-20 7 -6 -9 -14 -6 -28 10 -13 16 -31 23 -60 25 -24 1 -43 7 -46 15 -4 10 -15
13 -40 9 -19 -3 -37 -2 -40 2 -5 9 -75 23 -115 24 -80 1 -190 -45 -190 -80 0
-7 -9 -13 -20 -13 -25 0 -81 -52 -96 -88 -9 -23 -12 -7 -18 99 -9 147 5 223
60 327 18 35 31 69 28 76 -3 7 2 19 11 26 19 16 20 34 0 27 -20 -8 -30 11 -15
28 6 8 9 19 5 25 -3 5 1 10 9 10 10 0 15 8 14 23 -1 27 13 54 70 129 23 31 42
62 42 69 0 6 6 9 14 6 7 -3 17 -2 22 3 5 4 26 13 46 19 25 9 35 17 31 27 -6
16 5 18 27 4 8 -5 19 -5 25 -1 5 5 22 11 37 15 16 3 27 11 25 18 -2 12 81 37
123 38 15 0 31 5 38 12 6 6 33 13 59 15 26 1 49 7 51 13 2 5 11 10 19 10 13 0
13 -3 3 -15 -7 -9 -8 -15 -2 -15 5 0 12 6 15 14 6 15 64 19 73 5 2 -5 11 -6
19 -2 8 3 15 0 15 -6 0 -16 46 -13 64 4 8 8 18 15 21 15 4 0 5 -7 1 -15 -4
-11 2 -15 20 -15 16 0 23 4 18 11 -4 7 0 9 14 5 21 -7 72 11 72 26 0 5 5 6 10
3 6 -3 12 0 15 7 4 10 32 12 133 7 70 -4 137 -3 148 2 12 4 25 5 28 2 6 -6 10
-7 136 -17 41 -4 91 -8 110 -10 19 -2 55 0 79 4 29 5 51 4 63 -3 14 -9 20 -9
26 1 10 16 63 12 69 -6 3 -7 13 -10 23 -7 10 3 21 1 25 -5 3 -5 16 -10 28 -11
21 0 21 -1 2 -9 -20 -8 -8 -15 22 -11 6 1 13 -9 15 -21 2 -13 9 -24 16 -24 6
-1 18 -2 26 -3 8 0 19 -15 25 -32 6 -17 22 -42 36 -55 25 -23 34 -41 15 -29
-5 3 -10 2 -10 -2 0 -5 9 -14 21 -21 11 -7 19 -21 18 -30 -4 -26 20 -102 32
-102 6 0 8 7 5 16 -5 14 -4 15 9 4 13 -11 13 -15 -5 -30 -24 -21 -25 -30 -5
-30 8 0 12 -6 9 -13 -2 -7 9 -26 26 -42 30 -29 43 -58 15 -35 -13 11 -18 10
-30 -6 -10 -14 -11 -20 -1 -22 6 -1 17 -15 23 -30 7 -15 19 -42 27 -60 14 -30
14 -32 -2 -30 -13 2 -17 -6 -19 -44 -2 -43 0 -48 20 -48 17 0 19 -2 8 -9 -11
-7 -10 -14 8 -40 12 -17 19 -31 15 -31 -3 0 -2 -6 4 -13 14 -16 9 -212 -6
-248 -6 -15 -8 -30 -5 -33 3 -3 -1 -16 -10 -30 -14 -21 -14 -26 -2 -36 7 -6
16 -24 20 -39 6 -29 -9 -82 -22 -80 -21 3 -33 -2 -33 -15 0 -8 -6 -17 -12 -19
-7 -3 -2 -6 11 -6 19 -1 22 -4 13 -13 -7 -7 -35 -10 -68 -9 -37 1 -54 -1 -49
-8 3 -6 21 -12 38 -12 l32 -2 -35 -7 c-32 -7 5 -7 98 -1 7 1 10 6 6 13 -4 7
-3 8 4 4 7 -4 12 -1 12 8 0 8 -4 17 -9 20 -5 4 7 32 28 64 20 31 45 83 56 115
10 31 23 57 29 57 22 0 50 90 61 194 6 56 22 48 32 -17 6 -35 21 -85 33 -112
14 -30 20 -58 16 -74 -3 -14 -8 -57 -10 -96 -4 -66 -4 -68 9 -40 8 17 14 36
15 44 0 8 6 11 18 6 9 -4 23 -9 30 -12 26 -11 12 48 -24 97 -6 8 -23 48 -37
88 -34 92 -35 181 -7 354 32 191 55 265 114 365 34 58 61 74 160 92 56 10 60
10 92 -17 18 -15 33 -33 33 -40 1 -7 -17 -50 -39 -94 -30 -61 -37 -84 -27 -90
19 -12 27 -10 27 8 0 9 8 18 18 20 9 3 25 25 35 49 36 86 112 180 91 113 -7
-23 -7 -23 15 -4 12 11 20 25 17 31 -2 7 0 18 5 26 7 9 8 -18 3 -76 -6 -86
-16 -140 -48 -270 -8 -32 -14 -61 -12 -62 2 -2 13 26 24 62 59 177 83 399 45
411 -10 3 -43 18 -73 34 -82 42 -119 46 -190 20 -49 -18 -77 -39 -154 -117
-52 -52 -98 -103 -101 -113 -9 -27 -25 -25 -24 3 1 37 -13 122 -22 127 -4 3
-7 19 -7 35 1 32 -20 117 -31 125 -3 3 -11 14 -17 25 -6 11 -21 21 -33 23 -23
4 -29 33 -8 50 6 5 26 13 43 16 25 6 31 11 27 27 -3 10 -12 19 -19 19 -8 0
-14 7 -14 16 0 8 -4 12 -10 9 -20 -12 -10 18 13 38 l22 19 -25 -6 -25 -7 25
15 c29 18 44 20 35 6 -14 -23 11 -7 58 38 126 118 142 137 165 202 13 36 27
74 32 85 12 29 30 86 30 96 0 5 -18 9 -41 9 -37 0 -40 -2 -34 -21 5 -15 4 -19
-4 -15 -6 4 -11 13 -11 19 0 7 -11 14 -25 15 -22 2 -24 0 -14 -25 5 -14 6 -30
1 -35 -4 -4 -14 8 -21 27 -16 44 -33 46 -20 3 11 -41 11 -41 -2 -32 -7 4 -9 0
-6 -12 24 -79 15 -103 -14 -36 l-16 37 -8 -30 c-4 -16 -12 -33 -17 -36 -6 -4
-1 -24 12 -48 12 -24 19 -48 17 -54 -2 -7 -10 0 -17 15 -7 15 -16 25 -21 23
-4 -3 -17 8 -28 23 -19 28 -19 29 -1 44 10 9 20 14 22 12 3 -2 5 2 5 9 0 6 4
21 8 32 4 11 3 15 -2 9 -23 -30 -146 -124 -161 -124 -14 0 -15 -2 -2 -10 10
-6 16 -6 18 0 7 19 21 10 37 -24 9 -19 18 -40 19 -48 5 -23 19 -52 38 -80 25
-36 24 -52 -2 -38 -16 8 -20 8 -20 -4 0 -22 -33 -29 -47 -10 -15 21 -17 34 -4
34 5 0 12 -10 16 -22 4 -16 8 -19 12 -10 3 8 -4 27 -16 43 -26 35 -26 45 -3
51 19 5 26 38 9 38 -6 0 -8 3 -4 6 5 6 -28 44 -38 44 -3 0 -1 -9 5 -21 7 -11
9 -23 7 -26 -3 -2 -10 5 -17 16 -6 12 -16 18 -22 15 -7 -4 -8 -3 -4 4 4 7 3
12 -3 12 -6 0 -8 7 -4 16 4 12 0 14 -21 8 -16 -4 -26 -2 -26 5 0 6 -4 11 -10
11 -5 0 -10 -8 -10 -17 0 -13 -4 -12 -13 7 -8 14 -19 24 -25 23 -6 -2 -16 13
-22 31 -16 48 -52 88 -73 80 -12 -4 -17 -1 -17 10 0 17 -38 42 -57 38 -7 -2
-13 2 -13 8 0 7 -258 10 -822 10 -801 0 -824 -1 -848 -20 -14 -11 -30 -20 -36
-20 -6 0 -21 -11 -34 -25 -13 -14 -33 -25 -45 -25 -11 0 -26 -5 -32 -11 -16
-16 -25 4 -25 56 l0 45 -334 0 c-260 0 -334 -3 -334 -12 0 -9 -3 -9 -9 1 -7
10 -11 2 -15 -30z m444 17 c0 -3 -4 -8 -10 -11 -5 -3 -10 -1 -10 4 0 6 5 11
10 11 6 0 10 -2 10 -4z m-45 -16 c-3 -5 1 -10 9 -10 9 0 16 -4 16 -10 0 -13
-3 -13 -34 3 -26 14 -25 27 1 27 8 0 11 -4 8 -10z m2742 -52 c-3 -8 -6 -5 -6
6 -1 11 2 17 5 13 3 -3 4 -12 1 -19z m-12 -28 c4 -22 12 -43 17 -46 7 -5 9 2
5 18 -6 23 -4 25 21 25 15 0 21 -2 15 -4 -7 -3 -13 -11 -13 -18 0 -7 -6 -25
-14 -40 -13 -25 -15 -26 -24 -9 -5 11 -12 33 -16 49 -4 17 -9 38 -12 48 -3 9
-1 17 4 17 6 0 13 -18 17 -40z m-171 -89 c-9 -10 -36 28 -29 39 6 9 12 6 21
-11 7 -13 10 -26 8 -28z m-28 -6 c9 -14 21 -25 28 -25 11 0 66 -91 66 -110 0
-23 -22 -7 -36 25 -8 19 -20 35 -27 35 -6 0 -24 23 -39 50 -29 51 -22 70 8 25z
m204 -11 c0 -8 -4 -12 -10 -9 -5 3 -10 10 -10 16 0 5 5 9 10 9 6 0 10 -7 10
-16z m-107 -50 c20 -32 25 -50 18 -57 -7 -7 -16 2 -27 29 -9 21 -20 47 -25 57
-21 38 8 14 34 -29z m-173 -16 c0 -5 -4 -8 -10 -8 -5 0 -10 10 -10 23 0 18 2
19 10 7 5 -8 10 -18 10 -22z m139 -88 c0 -11 -3 -10 -14 4 -8 11 -15 29 -15
40 1 19 2 19 15 -4 8 -14 14 -32 14 -40z m-3019 -329 c0 -5 -7 -14 -15 -21
-13 -10 -15 -9 -15 9 0 12 6 21 15 21 8 0 15 -4 15 -9z m3480 -117 c0 -19 -39
-42 -61 -37 -14 4 -18 10 -13 22 4 9 9 30 10 46 1 17 3 32 3 34 2 10 61 -54
61 -65z m-112 25 c-4 -13 -146 -52 -163 -45 -5 2 -2 5 8 5 9 1 17 5 17 10 0 4
17 15 38 24 45 18 105 22 100 6z m112 -99 c-8 -28 -40 -80 -66 -107 -6 -6 -17
-25 -24 -42 -7 -17 -17 -31 -22 -31 -9 0 67 150 82 160 4 3 12 15 19 28 16 31
21 28 11 -8z m-3509 -13 c-8 -8 -11 -7 -11 4 0 20 13 34 18 19 3 -7 -1 -17 -7
-23z m-61 -37 c0 -5 -4 -10 -10 -10 -5 0 -10 5 -10 10 0 6 5 10 10 10 6 0 10
-4 10 -10z m3191 -32 c-11 -24 -26 -57 -35 -74 -14 -28 -31 -94 -41 -164 -13
-93 -38 -217 -45 -230 -19 -32 4 199 23 235 6 11 12 43 13 70 1 48 29 118 72
183 24 37 32 25 13 -20z m-3134 -328 c-4 -71 -11 -99 -44 -175 -22 -49 -44
-105 -47 -122 -4 -18 -12 -33 -18 -33 -7 0 -9 32 -5 98 6 102 29 184 83 297
34 71 39 61 31 -65z m-11 -254 c-3 -39 -8 -151 -10 -249 -2 -98 -7 -181 -10
-185 -3 -3 -7 51 -7 119 -1 68 -4 111 -6 94 -3 -16 -9 -34 -14 -40 -14 -14
-10 118 5 205 31 171 54 202 42 56z m2201 68 c-3 -3 -12 -4 -19 -1 -8 3 -5 6
6 6 11 1 17 -2 13 -5z m-167 -174 c0 -5 -4 -10 -10 -10 -5 0 -10 5 -10 10 0 6
5 10 10 10 6 0 10 -4 10 -10z m-112 -5 c-8 -8 -274 -25 -493 -32 -115 -3 -208
-3 -205 -1 7 7 156 17 370 24 96 4 177 8 179 10 6 6 155 5 149 -1z m142 -15
c0 -5 -2 -10 -4 -10 -3 0 -8 5 -11 10 -3 6 -1 10 4 10 6 0 11 -4 11 -10z m30
6 c0 -3 -4 -8 -10 -11 -5 -3 -10 -1 -10 4 0 6 5 11 10 11 6 0 10 -2 10 -4z
m-1560 -20 c0 -8 10 -17 23 -19 14 -3 9 -5 -15 -6 -31 -1 -35 2 -31 19 6 23
23 27 23 6z m1430 -2 c0 -2 -12 -4 -27 -4 -21 0 -24 3 -14 9 13 8 41 5 41 -5z
m-1165 -4 c-4 -6 7 -10 24 -10 17 0 31 -4 31 -10 0 -5 -9 -10 -20 -10 -11 0
-20 -4 -20 -10 0 -5 16 -9 35 -8 20 1 40 -3 45 -8 5 -5 -9 -8 -38 -6 -35 2
-43 0 -32 -7 13 -9 13 -11 -2 -11 -14 0 -17 7 -14 31 3 27 1 30 -19 25 -23 -6
-51 15 -38 27 10 11 55 8 48 -3z m143 3 c-10 -2 -26 -2 -35 0 -10 3 -2 5 17 5
19 0 27 -2 18 -5z m85 0 c-7 -2 -19 -2 -25 0 -7 3 -2 5 12 5 14 0 19 -2 13 -5z
m180 0 c-7 -2 -19 -2 -25 0 -7 3 -2 5 12 5 14 0 19 -2 13 -5z m1077 -40 c17
-4 17 -7 5 -19 -16 -17 -35 -18 -35 -3 0 5 -5 7 -10 4 -6 -4 -8 -10 -6 -14 7
-11 -117 0 -132 12 -16 13 2 27 36 27 12 0 22 3 22 8 0 4 17 8 38 8 20 1 31 0
25 -3 -22 -8 -15 -32 8 -26 12 4 18 11 15 20 -4 8 -3 20 1 26 5 8 9 3 11 -12
2 -13 12 -26 22 -28z m-1550 27 c0 -5 -3 -11 -7 -12 -19 -3 -61 -9 -98 -12
-22 -2 -25 -1 -7 1 17 2 32 8 32 13 0 5 -6 7 -14 4 -8 -3 -17 -1 -21 5 -4 7
14 11 54 11 34 0 61 -4 61 -10z m770 -10 c0 -5 -7 -10 -15 -10 -8 0 -15 5 -15
10 0 6 7 10 15 10 8 0 15 -4 15 -10z m360 3 c-8 -2 -29 -11 -47 -19 -36 -16
-43 -17 -43 -6 0 9 56 29 85 30 13 0 15 -1 5 -5z m-950 -19 c0 -2 -9 -4 -21
-4 -11 0 -18 4 -14 10 5 8 35 3 35 -6z m-413 0 c-3 -3 -12 -4 -19 -1 -8 3 -5
6 6 6 11 1 17 -2 13 -5z m243 -4 c0 -5 -2 -10 -4 -10 -3 0 -8 5 -11 10 -3 6
-1 10 4 10 6 0 11 -4 11 -10z m43 -14 c6 -15 -1 -26 -15 -26 -4 0 -8 9 -8 20
0 23 15 27 23 6z m1727 10 c0 -3 -4 -8 -10 -11 -5 -3 -10 -1 -10 4 0 6 5 11
10 11 6 0 10 -2 10 -4z m-1877 -23 c-13 -2 -33 -2 -45 0 -13 2 -3 4 22 4 25 0
35 -2 23 -4z m-33 -23 c8 -5 11 -12 7 -16 -4 -4 -15 0 -24 9 -18 18 -8 23 17
7z m325 -11 c-18 -7 -17 -8 5 -8 14 -1 32 -6 40 -12 11 -8 3 -9 -31 -6 -26 2
-53 1 -60 -3 -8 -4 -36 -10 -64 -13 -37 -5 -44 -4 -25 3 19 8 15 9 -20 4 -24
-3 -41 -1 -36 3 14 14 160 49 186 44 23 -4 23 -5 5 -12z m201 6 c17 -13 16
-14 -13 -4 -34 11 -42 19 -20 19 7 0 22 -7 33 -15z m1154 -17 c47 -10 120 -48
94 -48 -5 0 -2 -4 6 -10 19 -12 6 -25 -17 -15 -10 5 -24 7 -32 6 -7 -1 -10 2
-6 8 7 12 2 13 -55 14 -19 0 -38 4 -41 9 -3 5 -34 10 -70 13 -35 2 -66 4 -69
5 -3 1 -25 1 -50 1 -42 -1 -44 0 -26 14 11 8 28 13 38 9 10 -3 18 0 18 6 0 14
123 7 210 -12z m-2353 -45 c-3 -10 -5 -2 -5 17 0 19 2 27 5 18 2 -10 2 -26 0
-35z m678 27 c-3 -5 -13 -10 -21 -10 -8 0 -12 5 -9 10 3 6 13 10 21 10 8 0 12
-4 9 -10z m570 0 c3 -5 2 -10 -4 -10 -5 0 -13 5 -16 10 -3 6 -2 10 4 10 5 0
13 -4 16 -10z m30 -30 c3 -5 2 -10 -4 -10 -5 0 -13 5 -16 10 -3 6 -2 10 4 10
5 0 13 -4 16 -10z m802 -50 c-3 -11 -1 -18 4 -14 5 3 9 -6 9 -20 0 -14 -5 -28
-12 -32 -7 -4 -8 -3 -4 4 5 8 -3 12 -23 12 -37 0 -43 16 -16 46 25 30 49 32
42 4z m-1154 -19 c3 -15 -1 -18 -19 -17 -16 1 -24 7 -24 19 0 23 36 22 43 -2z
m1717 -1 c0 -5 -4 -10 -10 -10 -5 0 -10 5 -10 10 0 6 5 10 10 10 6 0 10 -4 10
-10z m-2660 -16 c0 -8 -4 -12 -10 -9 -5 3 -10 10 -10 16 0 5 5 9 10 9 6 0 10
-7 10 -16z m2380 7 c0 -5 -9 -11 -20 -14 -13 -3 -20 0 -20 9 0 8 9 14 20 14
11 0 20 -4 20 -9z m-1250 -31 c0 -5 7 -7 15 -4 11 5 13 2 9 -10 -3 -9 -10 -14
-14 -11 -5 3 -11 1 -15 -5 -3 -5 -1 -10 6 -10 7 0 10 -2 7 -5 -10 -10 -39 8
-34 21 6 17 5 17 -31 3 -15 -7 -44 -11 -63 -9 -37 2 -75 18 -66 27 3 3 11 1
18 -4 16 -12 101 -8 126 6 22 13 42 14 42 1z m255 -10 c3 -5 -3 -10 -14 -10
-12 0 -21 5 -21 10 0 6 6 10 14 10 8 0 18 -4 21 -10z m563 -15 c-3 -3 -9 2
-12 12 -6 14 -5 15 5 6 7 -7 10 -15 7 -18z m102 10 c0 -8 -7 -15 -16 -15 -14
0 -14 3 -4 15 7 8 14 15 16 15 2 0 4 -7 4 -15z m290 0 c0 -8 -4 -15 -10 -15
-5 0 -7 7 -4 15 4 8 8 15 10 15 2 0 4 -7 4 -15z m-2306 -85 c4 -52 3 -64 -3
-40 -15 61 -22 135 -12 125 5 -6 12 -44 15 -85z m1403 84 c-3 -3 -12 -4 -19
-1 -8 3 -5 6 6 6 11 1 17 -2 13 -5z m800 -20 c76 -8 73 -24 -3 -24 -39 0 -53
-3 -48 -12 4 -7 3 -8 -5 -4 -6 4 -9 12 -6 17 4 5 -5 9 -18 9 -14 0 -40 7 -58
15 l-34 16 55 -6 c30 -3 83 -8 117 -11z m-912 -14 c-3 -5 -11 -10 -16 -10 -6
0 -7 5 -4 10 3 6 11 10 16 10 6 0 7 -4 4 -10z m-950 -30 c-3 -5 -28 -10 -55
-10 -27 0 -52 5 -55 10 -4 6 17 10 55 10 38 0 59 -4 55 -10z m968 -2 c-2 -5
-10 -8 -18 -8 -8 0 -16 3 -18 8 -3 4 5 7 18 7 13 0 21 -3 18 -7z m817 -52 c0
-11 -19 -15 -25 -6 -3 5 1 10 9 10 9 0 16 -2 16 -4z m-380 -651 c0 -8 -7 -15
-16 -15 -14 0 -14 3 -4 15 7 8 14 15 16 15 2 0 4 -7 4 -15z m-409 -65 c5 0 9
-4 9 -9 0 -4 -11 -6 -25 -3 -14 2 -25 9 -25 14 0 6 7 7 16 4 9 -3 20 -6 25 -6z
m1470 -13 c-10 -9 -11 -8 -5 6 3 10 9 15 12 12 3 -3 0 -11 -7 -18z m-1318 -4
c-7 -2 -21 -2 -30 0 -10 3 -4 5 12 5 17 0 24 -2 18 -5z m1284 1 c-3 -3 -12 -4
-19 -1 -8 3 -5 6 6 6 11 1 17 -2 13 -5z m29 -51 c-11 -11 -19 6 -11 24 8 17 8
17 12 0 3 -10 2 -21 -1 -24z m-71 17 c3 -5 -1 -10 -10 -10 -9 0 -13 5 -10 10
3 6 8 10 10 10 2 0 7 -4 10 -10z m95 -50 c0 -5 -5 -10 -11 -10 -5 0 -7 5 -4
10 3 6 8 10 11 10 2 0 4 -4 4 -10z m-82 -37 c-18 -3 -28 -12 -31 -26 -4 -18
-5 -17 -6 6 -1 24 2 27 32 26 29 -2 29 -2 5 -6z m9 -29 c-3 -3 -12 -4 -19 -1
-8 3 -5 6 6 6 11 1 17 -2 13 -5z m13 -54 c0 -5 -7 -7 -15 -4 -8 4 -15 8 -15
10 0 2 7 4 15 4 8 0 15 -4 15 -10z m-1120 -75 c14 1 30 -6 37 -15 30 -40 -83
-82 -163 -60 -51 14 -54 24 -18 56 28 26 50 31 58 12 3 -9 8 -8 16 5 7 11 17
15 28 10 9 -5 28 -8 42 -8z m270 -55 c7 -14 7 -20 0 -20 -5 0 -10 5 -10 11 0
8 -11 9 -31 5 -27 -5 -30 -4 -19 9 18 21 47 19 60 -5z m781 3 c12 -15 12 -16
-2 -11 -9 4 -22 1 -28 -5 -16 -16 -26 0 -11 18 16 19 24 19 41 -2z m-734 -19
c-3 -3 -12 -4 -19 -1 -8 3 -5 6 6 6 11 1 17 -2 13 -5z m732 -18 c10 -12 8 -13
-8 -9 -12 3 -21 9 -21 14 0 14 16 11 29 -5z m-2074 -116 c-3 -5 -10 -10 -16
-10 -5 0 -9 5 -9 10 0 6 7 10 16 10 8 0 12 -4 9 -10z m415 -20 c0 -5 -8 -10
-17 -10 -15 0 -16 2 -3 10 19 12 20 12 20 0z m-450 -20 c0 -5 -5 -10 -11 -10
-5 0 -7 5 -4 10 3 6 8 10 11 10 2 0 4 -4 4 -10z m480 -8 c0 -4 -9 -13 -20 -20
-23 -14 -26 -8 -7 13 13 16 27 19 27 7z m1480 -43 c0 -5 -8 -9 -17 -9 -10 0
-28 -3 -40 -6 -16 -4 -23 -2 -23 7 0 9 14 15 40 16 22 0 40 -3 40 -8z m-1560
-13 c0 -11 -19 -15 -25 -6 -3 5 1 10 9 10 9 0 16 -2 16 -4z m53 -2 c9 -3 13
-13 10 -25 -5 -19 -23 -27 -23 -10 0 5 -3 16 -6 25 -7 17 -3 19 19 10z m87
-14 c0 -14 38 -12 43 3 2 6 8 8 13 4 4 -4 3 -17 -4 -27 -7 -12 -8 -20 -2 -20
5 0 10 -9 10 -20 0 -17 -7 -20 -46 -20 -29 0 -43 4 -39 11 4 6 20 8 38 4 l32
-6 -29 15 c-15 9 -32 14 -36 11 -9 -5 -20 18 -20 41 0 8 9 14 20 14 11 0 20
-4 20 -10z m-102 -48 c2 -12 7 -22 12 -22 4 0 6 -9 3 -20 -3 -11 -10 -20 -17
-20 -6 0 -17 9 -24 20 -10 17 -10 20 4 20 28 0 5 18 -33 26 l-38 7 30 8 c45
10 60 6 63 -19z m802 -12 c0 -5 -4 -10 -10 -10 -5 0 -10 5 -10 10 0 6 5 10 10
10 6 0 10 -4 10 -10z m757 -97 c1 -10 -4 -37 -9 -61 -8 -33 -7 -46 3 -59 12
-15 12 -16 -3 -10 -13 5 -18 1 -18 -12 0 -16 -8 -19 -52 -19 l-53 1 48 10 c26
5 47 14 47 20 0 6 -3 7 -7 4 -3 -4 -15 0 -25 9 -14 14 -20 14 -33 4 -29 -24
-15 -1 25 40 22 23 40 47 40 54 0 13 20 36 30 36 4 0 7 -8 7 -17z m-717 -37
c0 -3 -4 -8 -10 -11 -5 -3 -10 -1 -10 4 0 6 5 11 10 11 6 0 10 -2 10 -4z m830
-11 c0 -8 -4 -15 -10 -15 -5 0 -10 7 -10 15 0 8 5 15 10 15 6 0 10 -7 10 -15z
m-1315 -55 c3 -5 1 -10 -4 -10 -6 0 -11 5 -11 10 0 6 2 10 4 10 3 0 8 -4 11
-10z m72 4 c-3 -3 -12 -4 -19 -1 -8 3 -5 6 6 6 11 1 17 -2 13 -5z m-270 -36
c-3 -8 -6 -5 -6 6 -1 11 2 17 5 13 3 -3 4 -12 1 -19z m-830 -25 c-3 -10 -5 -4
-5 12 0 17 2 24 5 18 2 -7 2 -21 0 -30z m1010 12 c0 -8 -4 -15 -9 -15 -4 0 -8
7 -8 15 0 8 4 15 8 15 5 0 9 -7 9 -15z m-980 -37 c-3 -8 -6 -5 -6 6 -1 11 2
17 5 13 3 -3 4 -12 1 -19z m2157 -39 c-12 -14 -20 -16 -30 -8 -7 6 -10 17 -7
25 3 9 -2 14 -18 15 -13 1 -6 5 16 8 48 7 66 -10 39 -40z m-1654 27 c0 -2 -7
-6 -15 -10 -8 -3 -15 -1 -15 4 0 6 7 10 15 10 8 0 15 -2 15 -4z m1120 0 c0 -3
-4 -8 -10 -11 -5 -3 -10 -1 -10 4 0 6 5 11 10 11 6 0 10 -2 10 -4z m-1587 -47
c-8 -29 -13 -23 -13 14 0 22 3 28 9 18 5 -7 6 -22 4 -32z m1637 37 c0 -11 -19
-15 -25 -6 -3 5 1 10 9 10 9 0 16 -2 16 -4z m-1590 -156 c0 -5 -4 -10 -10 -10
-5 0 -10 5 -10 10 0 6 5 10 10 10 6 0 10 -4 10 -10z m500 -54 c0 -3 -4 -8 -10
-11 -5 -3 -10 -1 -10 4 0 6 5 11 10 11 6 0 10 -2 10 -4z m1723 -89 c-9 -15
-41 23 -36 44 5 19 7 18 24 -7 10 -15 15 -32 12 -37z m17 -33 c0 -8 -5 -12
-10 -9 -6 4 -8 11 -5 16 9 14 15 11 15 -7z m-1950 -4 c0 -5 -5 -10 -11 -10 -5
0 -7 5 -4 10 3 6 8 10 11 10 2 0 4 -4 4 -10z m2602 -20 c-17 -16 -22 -17 -22
-6 0 8 8 19 17 25 27 15 29 3 5 -19z m-2612 -44 c0 -2 -7 -6 -15 -10 -8 -3
-15 -1 -15 4 0 6 7 10 15 10 8 0 15 -2 15 -4z m2520 0 c0 -2 -9 -6 -20 -9 -11
-3 -18 -1 -14 4 5 9 34 13 34 5z m-2837 -23 c-7 -2 -19 -2 -25 0 -7 3 -2 5 12
5 14 0 19 -2 13 -5z m357 -13 c0 -5 -5 -10 -11 -10 -5 0 -7 5 -4 10 3 6 8 10
11 10 2 0 4 -4 4 -10z m1955 -20 c-6 -27 -4 -30 17 -28 17 2 24 -3 26 -20 3
-21 1 -23 -20 -17 -13 4 -25 12 -26 17 -2 5 -10 4 -18 -3 -11 -9 -14 -8 -14 4
0 9 -7 23 -16 31 -14 15 -14 16 1 16 8 0 18 7 21 15 4 8 13 15 21 15 11 0 13
-7 8 -30z m-1985 -10 c10 -6 11 -10 3 -10 -7 0 -13 -6 -13 -14 0 -9 -7 -12
-20 -9 -11 3 -20 10 -20 15 0 6 7 8 15 5 8 -4 17 -2 20 3 3 5 -5 11 -17 13
-20 4 -20 4 -3 5 11 1 27 -3 35 -8z m-310 -10 c0 -5 -4 -10 -10 -10 -5 0 -10
5 -10 10 0 6 5 10 10 10 6 0 10 -4 10 -10z m419 -44 c0 -17 -2 -16 -11 7 -5
15 -14 27 -19 27 -6 0 -7 5 -3 12 10 15 34 -19 33 -46z m1643 12 c-7 -7 -12
-8 -12 -2 0 14 12 26 19 19 2 -3 -1 -11 -7 -17z m778 -3 c0 -12 -19 -12 -23 0
-4 9 -1 12 9 8 7 -3 14 -7 14 -8z m-382 -12 c-2 -10 -12 -19 -23 -21 -18 -3
-19 -2 -2 8 9 6 15 15 12 21 -4 5 -1 9 5 9 6 0 10 -8 8 -17z m-1928 -39 c0 -2
-7 -4 -15 -4 -8 0 -15 4 -15 10 0 5 7 7 15 4 8 -4 15 -8 15 -10z m1500 -5 c0
-18 -2 -20 -15 -9 -13 11 -13 15 -3 21 18 12 18 12 18 -12z m848 -20 c-5 -3
-6 -13 -2 -22 3 -10 1 -17 -5 -17 -13 0 -13 6 -4 51 5 27 8 30 13 14 4 -11 3
-23 -2 -26z m-443 21 c3 -5 1 -10 -4 -10 -6 0 -11 5 -11 10 0 6 2 10 4 10 3 0
8 -4 11 -10z m45 0 c0 -5 -4 -10 -10 -10 -5 0 -10 5 -10 10 0 6 5 10 10 10 6
0 10 -4 10 -10z m13 -27 c-7 -2 -19 -2 -25 0 -7 3 -2 5 12 5 14 0 19 -2 13 -5z
m-1963 -13 c0 -5 -7 -10 -15 -10 -8 0 -15 5 -15 10 0 6 7 10 15 10 8 0 15 -4
15 -10z m1890 -16 c0 -8 -5 -12 -10 -9 -6 4 -8 11 -5 16 9 14 15 11 15 -7z
m47 0 c-3 -3 -12 -4 -19 -1 -8 3 -5 6 6 6 11 1 17 -2 13 -5z m-593 -19 c11 -8
16 -18 13 -22 -4 -3 -16 3 -27 15 -23 25 -15 29 14 7z m-1754 -5 c0 -5 -4 -10
-10 -10 -5 0 -10 5 -10 10 0 6 5 10 10 10 6 0 10 -4 10 -10z m805 -73 c16 -4
14 -5 -7 -6 -27 -1 -43 11 -31 23 4 3 9 2 12 -3 3 -5 15 -11 26 -14z m42 17
c-3 -3 -12 -4 -19 -1 -8 3 -5 6 6 6 11 1 17 -2 13 -5z"/>
<path d="M3020 750 c0 -5 5 -10 11 -10 5 0 7 5 4 10 -3 6 -8 10 -11 10 -2 0
-4 -4 -4 -10z"/>
<path d="M4105 4543 c4 -10 20 -55 34 -101 15 -46 30 -80 34 -75 5 4 5 1 2 -8
-3 -8 16 -80 43 -160 27 -79 73 -216 102 -304 30 -88 71 -212 93 -275 50 -147
54 -170 33 -182 -27 -15 -20 -40 11 -36 26 3 29 -1 65 -107 l38 -110 -2 128
c-1 97 -5 127 -15 127 -13 0 -18 17 -14 56 1 12 -5 24 -13 27 -8 3 -17 28 -21
59 -4 29 -13 57 -20 63 -6 5 -79 214 -161 462 l-149 453 -34 0 c-28 0 -32 -3
-26 -17z"/>
<path d="M3650 4531 c0 -5 5 -13 10 -16 6 -3 10 -2 10 4 0 5 -4 13 -10 16 -5
3 -10 2 -10 -4z"/>
<path d="M0 4503 c0 -28 10 -53 21 -53 14 0 10 33 -6 54 -15 19 -15 19 -15 -1z"/>
<path d="M27 4334 c-8 -8 1 -24 14 -24 5 0 9 7 9 15 0 15 -12 20 -23 9z"/>
<path d="M68 4317 c-3 -15 -1 -30 3 -33 5 -3 9 -10 9 -16 0 -15 -52 0 -67 18
-9 12 -11 3 -12 -47 0 -35 5 -70 12 -78 9 -12 9 -13 0 -7 -8 4 -13 1 -13 -8 0
-9 7 -16 15 -16 17 0 15 -42 -3 -77 -18 -32 -15 -53 6 -47 16 5 16 5 0 -9 -26
-21 -23 -47 5 -47 46 1 79 51 92 140 7 54 -38 275 -47 227z m15 -93 c-3 -8 0
-20 5 -27 7 -8 7 -18 2 -27 -8 -13 -10 -12 -10 2 0 15 -6 17 -35 12 -41 -6
-42 -3 -14 35 22 30 63 33 52 5z m-26 -70 c-3 -3 -12 -4 -19 -1 -8 3 -5 6 6 6
11 1 17 -2 13 -5z m-7 -124 c0 -5 -4 -10 -10 -10 -5 0 -10 5 -10 10 0 6 5 10
10 10 6 0 10 -4 10 -10z m30 -25 c-7 -8 -18 -15 -24 -15 -6 0 -2 7 8 15 25 19
32 19 16 0z"/>
<path d="M3520 4220 c0 -21 17 -46 25 -38 4 4 0 17 -9 30 -10 14 -16 17 -16 8z"/>
<path d="M4430 4136 c0 -7 11 -21 23 -29 13 -9 30 -29 37 -46 12 -30 30 -42
30 -20 0 20 -69 109 -85 109 -3 0 -5 -6 -5 -14z"/>
<path d="M4540 4000 c0 -5 5 -10 10 -10 6 0 10 5 10 10 0 6 -4 10 -10 10 -5 0
-10 -4 -10 -10z"/>
<path d="M4552 3555 c0 -16 2 -22 5 -12 2 9 2 23 0 30 -3 6 -5 -1 -5 -18z"/>
<path d="M3904 3383 c-38 -132 -76 -261 -90 -308 -8 -27 -25 -85 -39 -129 -31
-96 -42 -174 -34 -246 3 -30 2 -60 -2 -65 -10 -14 -63 -115 -72 -138 -14 -36
13 -5 37 43 34 67 104 160 118 157 7 -1 17 12 23 28 5 17 31 68 57 115 26 47
61 117 78 155 18 39 43 94 57 124 13 29 22 58 20 65 -3 6 -10 -2 -17 -19 -35
-83 -42 -95 -50 -95 -11 0 -29 -31 -33 -58 -1 -10 -9 -30 -18 -43 -8 -13 -23
-41 -34 -61 -11 -21 -24 -38 -28 -38 -5 0 -7 -6 -4 -13 3 -8 -5 -27 -19 -43
-13 -16 -24 -33 -24 -39 -1 -15 -33 -50 -52 -58 -15 -5 -18 0 -18 36 0 39 49
238 70 282 13 28 34 108 32 121 -1 6 18 71 43 145 25 73 45 134 45 136 0 2 -7
3 -14 3 -10 0 -21 -22 -32 -57z"/>
<path d="M3280 3284 c0 -15 10 -17 34 -8 24 9 19 22 -9 22 -15 0 -25 -6 -25
-14z"/>
<path d="M4076 3254 c-4 -14 -5 -28 -3 -31 3 -2 8 8 11 23 4 14 5 28 3 31 -3
2 -8 -8 -11 -23z"/>
<path d="M4366 3092 c-4 -7 -16 -12 -26 -12 -26 0 -36 -21 -17 -35 22 -16 22
-13 -14 -130 -37 -117 -36 -114 -87 -225 -22 -47 -47 -106 -55 -130 -16 -47
-28 -79 -57 -145 -10 -22 -35 -85 -55 -140 -20 -55 -41 -104 -46 -110 -5 -5
-9 -15 -9 -22 0 -8 -13 -43 -30 -78 -16 -35 -30 -69 -30 -75 0 -6 -4 -18 -9
-28 -5 -9 -17 -35 -26 -57 -9 -22 -20 -49 -25 -60 -4 -11 -18 -47 -30 -80 -12
-33 -32 -80 -45 -105 -12 -25 -32 -73 -45 -107 -12 -35 -25 -63 -29 -63 -3 1
-17 7 -31 15 -32 18 -40 18 -40 0 0 -8 7 -15 15 -15 8 0 42 -25 76 -55 59 -53
70 -59 96 -56 6 1 38 -14 71 -34 33 -19 65 -35 71 -35 6 0 11 -4 11 -9 0 -4
28 -23 63 -41 34 -18 80 -45 102 -59 22 -15 61 -37 88 -50 26 -13 47 -28 47
-33 0 -4 5 -8 11 -8 7 0 50 -23 96 -51 47 -28 87 -48 90 -46 5 6 -21 24 -77
54 -57 30 -232 134 -275 163 -22 15 -68 42 -102 61 -35 18 -63 37 -63 41 0 5
2 8 4 8 8 0 107 -45 265 -121 90 -44 169 -79 175 -79 7 0 38 -16 71 -35 32
-20 60 -33 63 -30 9 9 -29 34 -98 67 -36 16 -139 66 -229 109 -90 43 -165 79
-168 79 -2 0 -48 20 -101 45 -184 85 -190 92 -154 162 11 21 28 61 37 88 10
28 38 90 62 139 23 48 43 94 43 101 0 7 3 15 8 17 6 3 35 69 119 273 13 33 29
71 35 85 6 14 17 39 24 55 7 17 22 53 35 80 12 28 36 84 54 125 18 41 42 95
53 120 11 25 33 74 47 110 15 36 34 76 42 89 8 13 16 40 17 60 3 44 24 101 38
101 5 0 37 -16 69 -35 33 -19 62 -35 65 -35 2 0 4 18 4 39 0 44 -10 51 -70 51
-24 0 -40 5 -44 15 -4 12 5 15 54 15 47 0 60 3 60 15 0 10 -10 15 -27 15 -75
2 -138 13 -149 28 -8 11 -13 12 -18 4z m22 -104 c4 -18 -85 -214 -94 -206 -3
3 12 56 32 117 34 103 54 131 62 89z"/>
<path d="M1671 3044 c0 -11 3 -14 6 -6 3 7 2 16 -1 19 -3 4 -6 -2 -5 -13z"/>
<path d="M52 3007 c-39 -49 -52 -98 -52 -202 0 -113 13 -140 25 -50 9 72 25
81 26 13 1 -128 -3 -233 -12 -286 -5 -31 -12 -131 -15 -222 -4 -91 -10 -175
-15 -188 -5 -13 -9 -52 -9 -88 0 -57 2 -64 20 -64 25 0 25 1 0 -95 -25 -96
-27 -249 -5 -313 9 -24 33 -67 55 -96 22 -29 40 -56 40 -61 0 -4 -15 -5 -33
-2 -17 3 -41 7 -52 9 -17 3 -20 -3 -23 -39 -3 -43 -3 -43 32 -43 19 0 38 -5
42 -11 5 -8 -6 -9 -35 -4 -47 8 -59 -11 -13 -21 53 -11 71 -23 97 -68 34 -57
50 -60 41 -6 l-6 40 38 0 c34 0 42 -5 72 -44 31 -42 57 -62 67 -52 3 3 -5 15
-17 28 -31 33 -42 56 -30 63 13 8 1 35 -16 35 -8 0 -14 5 -14 10 0 6 12 10 26
10 22 0 25 2 14 15 -7 8 -26 19 -43 23 -34 9 -34 9 -78 107 -18 39 -46 93 -64
120 -65 105 -69 125 -56 333 6 102 14 213 18 246 6 58 5 60 -12 46 -17 -14
-17 -11 -11 60 4 41 11 161 16 267 4 106 11 196 14 201 9 14 10 183 2 260 -8
74 -16 91 -34 69z m4 -64 c-10 -10 -19 5 -10 18 6 11 8 11 12 0 2 -7 1 -15 -2
-18z m22 -1400 c38 -53 103 -185 100 -201 -2 -11 -14 1 -32 33 -16 28 -49 78
-74 113 -40 57 -45 69 -48 130 l-4 67 19 -57 c10 -31 27 -69 39 -85z m-34
-228 c4 -10 -1 -15 -14 -15 -13 0 -18 5 -14 15 4 8 10 15 14 15 4 0 10 -7 14
-15z m94 -5 c2 0 0 -4 -3 -10 -9 -15 -51 -12 -64 3 -16 20 -4 26 32 16 18 -5
33 -9 35 -9z m32 -50 c0 -12 -37 -12 -65 0 -15 7 -10 9 23 9 23 1 42 -3 42 -9z"/>
<path d="M3578 2802 c-10 -2 -18 -8 -18 -13 0 -13 27 -11 35 2 9 13 4 16 -17
11z"/>
<path d="M3180 2759 c0 -5 5 -7 10 -4 6 3 10 8 10 11 0 2 -4 4 -10 4 -5 0 -10
-5 -10 -11z"/>
<path d="M3170 2710 c0 -5 5 -10 11 -10 5 0 7 5 4 10 -3 6 -8 10 -11 10 -2 0
-4 -4 -4 -10z"/>
<path d="M3240 2589 c0 -5 5 -7 10 -4 6 3 10 8 10 11 0 2 -4 4 -10 4 -5 0 -10
-5 -10 -11z"/>
<path d="M2134 2569 c-3 -6 -19 -9 -35 -7 -15 3 -26 1 -23 -4 3 -4 12 -8 20
-8 9 0 14 -11 14 -31 0 -45 30 -140 54 -172 48 -64 75 -92 81 -85 4 4 -9 30
-29 59 -21 28 -34 54 -30 57 4 4 9 1 11 -5 6 -18 20 -16 20 2 0 9 -10 15 -24
15 -14 0 -22 4 -18 10 4 6 14 8 23 6 10 -3 29 1 44 8 23 12 27 12 32 0 5 -13
46 -21 46 -9 0 10 -48 54 -52 49 -3 -2 -13 5 -23 16 -10 11 -24 20 -32 20 -7
0 -13 7 -13 15 0 8 -6 15 -14 15 -8 0 -18 9 -21 20 -3 11 -12 20 -18 20 -7 0
-6 4 3 10 9 6 10 10 3 10 -6 0 -15 -5 -19 -11z m20 -54 c-4 -8 -10 -12 -15 -9
-11 6 -2 24 11 24 5 0 7 -7 4 -15z m16 -61 c0 -8 5 -14 10 -14 6 0 10 -4 10
-10 0 -16 -27 -11 -34 6 -9 24 -7 46 4 39 6 -3 10 -13 10 -21z m54 0 c4 -10 1
-14 -6 -12 -15 5 -23 28 -10 28 5 0 13 -7 16 -16z"/>
<path d="M3410 2565 c0 -8 -9 -19 -20 -25 -16 -9 -20 -21 -20 -61 0 -31 4 -48
10 -44 6 3 10 14 10 25 0 10 7 21 16 24 11 4 13 12 8 28 -6 20 -5 21 8 10 13
-10 17 -10 22 3 3 8 3 21 0 29 -8 20 -34 29 -34 11z"/>
<path d="M1153 2523 c9 -2 25 -2 35 0 9 3 1 5 -18 5 -19 0 -27 -2 -17 -5z"/>
<path d="M3223 2440 c0 -38 4 -70 8 -70 5 0 9 32 9 70 0 39 -4 70 -9 70 -4 0
-8 -31 -8 -70z"/>
<path d="M3431 2484 c0 -11 3 -14 6 -6 3 7 2 16 -1 19 -3 4 -6 -2 -5 -13z"/>
<path d="M4427 2433 c-11 -11 -8 -58 5 -71 17 -17 45 -15 52 3 9 23 -14 75
-33 75 -10 0 -21 -3 -24 -7z m33 -44 c0 -11 -4 -17 -10 -14 -5 3 -10 13 -10
21 0 8 5 14 10 14 6 0 10 -9 10 -21z"/>
<path d="M3370 2394 c0 -8 5 -12 10 -9 6 3 10 10 10 16 0 5 -4 9 -10 9 -5 0
-10 -7 -10 -16z"/>
<path d="M1800 2385 c0 -8 0 -17 0 -20 0 -16 14 -6 16 13 2 12 -1 22 -6 22 -6
0 -10 -7 -10 -15z"/>
<path d="M2435 2350 c3 -5 8 -10 11 -10 2 0 4 5 4 10 0 6 -5 10 -11 10 -5 0
-7 -4 -4 -10z"/>
<path d="M3209 2328 c-2 -40 -18 -88 -29 -88 -4 0 -10 -8 -13 -17 -3 -10 -15
-33 -27 -50 -12 -18 -17 -33 -12 -33 6 0 19 14 29 30 9 17 20 30 24 30 4 0 14
21 22 48 24 74 28 102 17 102 -5 0 -11 -10 -11 -22z"/>
<path d="M3376 2335 c-3 -8 -1 -15 4 -15 6 0 10 7 10 15 0 8 -2 15 -4 15 -2 0
-6 -7 -10 -15z"/>
<path d="M1772 2328 c-7 -7 -12 -20 -12 -30 0 -10 -7 -18 -15 -18 -8 0 -15 -4
-15 -10 0 -23 57 7 64 34 7 26 -6 40 -22 24z"/>
<path d="M2565 2312 c12 -13 81 -19 91 -9 4 4 -6 7 -22 7 -16 0 -40 3 -54 6
-18 5 -22 4 -15 -4z"/>
<path d="M2658 2283 c7 -3 16 -2 19 1 4 3 -2 6 -13 5 -11 0 -14 -3 -6 -6z"/>
<path d="M2260 2250 c0 -10 36 -50 45 -50 3 0 29 -15 58 -33 29 -18 67 -40 85
-48 17 -7 32 -17 32 -20 0 -6 10 -10 55 -24 6 -2 29 -10 52 -18 23 -9 63 -18
90 -21 l48 -6 -50 14 c-67 18 -197 71 -254 103 -48 28 -134 92 -139 105 -5 12
-22 10 -22 -2z"/>
<path d="M1625 2160 c-3 -5 -2 -10 4 -10 5 0 13 5 16 10 3 6 2 10 -4 10 -5 0
-13 -4 -16 -10z"/>
<path d="M1569 2113 c-45 -34 -91 -58 -181 -96 -58 -25 -184 -32 -237 -13 -51
19 -51 19 -51 7 0 -17 107 -34 186 -29 69 4 91 10 176 52 53 26 106 59 119 72
26 28 21 31 -12 7z"/>
<path d="M4485 2119 c-87 -21 -151 -145 -149 -289 1 -110 31 -172 108 -224 64
-43 116 -34 116 21 0 31 -2 34 -21 28 l-22 -7 22 30 c11 17 21 38 21 48 0 13
-8 8 -27 -19 -22 -31 -32 -37 -56 -35 -46 5 -71 46 -72 118 0 33 -4 60 -9 60
-4 0 -6 -27 -4 -60 2 -33 1 -60 -3 -60 -16 0 -34 69 -33 125 2 101 76 205 147
205 16 0 26 -7 30 -20 10 -39 27 -20 27 29 0 35 -4 51 -16 55 -9 3 -16 6 -17
5 -1 -1 -20 -5 -42 -10z"/>
<path d="M2320 2080 c0 -5 5 -10 10 -10 6 0 10 5 10 10 0 6 -4 10 -10 10 -5 0
-10 -4 -10 -10z"/>
<path d="M2893 2037 c-61 -10 -87 -27 -40 -27 28 0 136 25 144 34 8 8 -26 5
-104 -7z"/>
<path d="M2380 2020 c-8 -5 -11 -12 -7 -16 4 -4 13 -2 19 4 15 15 7 24 -12 12z"/>
<path d="M2380 1971 c0 -6 5 -13 10 -16 6 -3 10 1 10 9 0 9 -4 16 -10 16 -5 0
-10 -4 -10 -9z"/>
<path d="M2423 1953 c9 -9 19 -14 23 -11 10 10 -6 28 -24 28 -15 0 -15 -1 1
-17z"/>
<path d="M3380 1785 c0 -8 2 -15 4 -15 2 0 6 7 10 15 3 8 1 15 -4 15 -6 0 -10
-7 -10 -15z"/>
<path d="M4097 1663 c-4 -3 -7 -21 -7 -40 0 -26 6 -36 26 -45 32 -15 46 2 38
47 -6 38 -37 58 -57 38z m43 -43 c0 -5 -7 -10 -15 -10 -8 0 -15 5 -15 10 0 6
7 10 15 10 8 0 15 -4 15 -10z"/>
<path d="M3030 1550 c0 -5 5 -10 11 -10 5 0 7 5 4 10 -3 6 -8 10 -11 10 -2 0
-4 -4 -4 -10z"/>
<path d="M3021 1521 c-7 -5 -11 -17 -9 -27 4 -17 5 -17 17 4 14 27 12 35 -8
23z"/>
<path d="M3120 1508 c1 -17 28 -53 35 -46 8 8 -13 58 -25 58 -5 0 -10 -6 -10
-12z"/>
<path d="M2975 1410 c10 -11 20 -20 22 -20 1 0 3 9 3 20 0 14 -7 20 -22 20
-20 0 -21 -1 -3 -20z"/>
<path d="M2976 1355 c18 -27 34 -33 34 -12 0 8 -11 19 -25 25 -25 12 -25 12
-9 -13z"/>
<path d="M2951 1283 c-1 -24 14 -39 24 -23 3 5 2 10 -4 10 -5 0 -12 8 -14 18
-4 13 -5 12 -6 -5z"/>
<path d="M2920 1210 c-12 -8 -12 -10 3 -16 21 -8 35 2 21 16 -5 5 -15 6 -24 0z"/>
<path d="M2176 1201 c-4 -7 -5 -15 -2 -18 9 -9 19 4 14 18 -4 11 -6 11 -12 0z"/>
<path d="M2971 1194 c0 -11 3 -14 6 -6 3 7 2 16 -1 19 -3 4 -6 -2 -5 -13z"/>
<path d="M990 1184 c0 -10 28 -33 33 -27 3 3 0 12 -8 19 -14 15 -25 18 -25 8z"/>
<path d="M2218 1163 c7 -3 16 -2 19 1 4 3 -2 6 -13 5 -11 0 -14 -3 -6 -6z"/>
<path d="M1826 1135 c-3 -8 -1 -15 4 -15 6 0 10 7 10 15 0 8 -2 15 -4 15 -2 0
-6 -7 -10 -15z"/>
<path d="M1920 1109 c0 -5 5 -7 10 -4 6 3 10 8 10 11 0 2 -4 4 -10 4 -5 0 -10
-5 -10 -11z"/>
<path d="M1951 1091 c-9 -6 -4 -10 18 -13 20 -3 30 -1 28 6 -5 14 -29 18 -46
7z"/>
<path d="M2760 1060 c0 -5 5 -10 10 -10 6 0 10 5 10 10 0 6 -4 10 -10 10 -5 0
-10 -4 -10 -10z"/>
<path d="M2767 1019 c-9 -6 -15 -14 -12 -20 9 -14 19 -11 33 11 13 22 7 25
-21 9z"/>
<path d="M4518 998 c5 -5 16 -8 23 -6 8 3 3 7 -10 11 -17 4 -21 3 -13 -5z"/>
<path d="M2412 956 c7 -8 17 -12 22 -9 4 3 2 9 -5 14 -22 13 -31 11 -17 -5z"/>
<path d="M2405 920 c-4 -6 5 -10 19 -10 14 0 26 5 26 10 0 6 -9 10 -19 10 -11
0 -23 -4 -26 -10z"/>
<path d="M800 837 c0 -8 -8 -18 -17 -20 -17 -4 -17 -5 0 -6 18 -1 35 25 23 36
-3 4 -6 -1 -6 -10z"/>
<path d="M550 829 c0 -4 -26 -13 -57 -19 -72 -15 -77 -18 -59 -36 18 -17 47
-19 44 -1 -2 8 12 12 45 11 35 0 43 2 31 9 -13 8 -14 11 -3 18 8 5 24 9 37 9
12 0 22 5 22 10 0 6 -13 9 -30 8 -16 -1 -30 -5 -30 -9z"/>
<path d="M3793 823 c27 -7 20 -26 -8 -21 -14 3 -25 1 -25 -3 0 -5 5 -9 11 -9
19 0 79 -55 79 -72 0 -10 4 -18 8 -18 17 0 21 13 11 32 -8 14 -8 23 0 31 7 7
12 2 16 -16 4 -14 13 -28 22 -31 10 -4 13 -1 8 13 -4 13 0 23 12 30 18 11 16
12 -27 14 -15 1 -25 8 -25 17 0 20 -12 27 -60 32 -22 3 -32 3 -22 1z m56 -42
c7 -5 10 -14 7 -20 -5 -8 -11 -7 -22 3 -24 24 -14 35 15 17z"/>
<path d="M590 800 c-8 -5 -10 -10 -5 -10 6 0 17 5 25 10 8 5 11 10 5 10 -5 0
-17 -5 -25 -10z"/>
<path d="M396 782 c-3 -6 -1 -14 5 -17 14 -9 20 -2 10 14 -6 8 -11 9 -15 3z"/>
<path d="M3280 760 c0 -5 5 -10 11 -10 5 0 7 5 4 10 -3 6 -8 10 -11 10 -2 0
-4 -4 -4 -10z"/>
<path d="M4160 756 c0 -9 7 -16 16 -16 17 0 14 22 -4 28 -7 2 -12 -3 -12 -12z"/>
<path d="M296 745 c-11 -8 -15 -15 -9 -15 6 0 16 7 23 15 16 19 11 19 -14 0z"/>
<path d="M345 750 c3 -5 13 -10 21 -10 8 0 14 5 14 10 0 6 -9 10 -21 10 -11 0
-17 -4 -14 -10z"/>
<path d="M504 740 c0 -11 5 -20 11 -20 6 0 11 9 12 20 1 11 -4 20 -10 20 -7 0
-13 -9 -13 -20z"/>
<path d="M3440 747 c0 -10 8 -17 18 -17 9 0 13 4 7 8 -5 4 -13 11 -17 16 -5 5
-8 2 -8 -7z"/>
<path d="M750 735 c0 -16 38 -40 48 -30 4 4 -1 11 -11 16 -9 6 -15 14 -12 20
4 5 -1 9 -9 9 -9 0 -16 -7 -16 -15z"/>
<path d="M3220 725 c0 -8 -4 -15 -10 -15 -5 0 -10 -7 -10 -15 0 -8 5 -15 10
-15 6 0 10 6 10 14 0 8 7 16 15 20 8 3 15 10 15 16 0 5 -7 10 -15 10 -8 0 -15
-7 -15 -15z"/>
<path d="M440 720 c0 -5 -7 -10 -16 -10 -8 0 -12 -5 -9 -10 4 -6 15 -8 26 -5
11 4 19 2 19 -4 0 -6 -10 -11 -23 -11 -25 0 -49 -31 -38 -48 5 -8 14 -4 29 13
12 14 29 25 37 25 18 0 19 19 1 43 -15 19 -26 22 -26 7z"/>
<path d="M300 716 c0 -2 7 -7 16 -10 8 -3 12 -2 9 4 -6 10 -25 14 -25 6z"/>
<path d="M820 703 c-13 -15 -12 -16 4 -10 10 4 20 7 22 7 2 0 4 5 4 10 0 15
-13 12 -30 -7z"/>
<path d="M240 691 c0 -11 25 -21 56 -21 13 0 24 -4 24 -10 0 -5 -4 -10 -10
-10 -5 0 -10 -11 -10 -25 0 -16 -6 -25 -15 -25 -8 0 -15 -4 -15 -10 0 -13 16
-13 41 1 14 7 18 16 14 30 -4 11 -2 19 4 19 6 0 11 -4 11 -10 0 -5 9 -10 20
-10 11 0 20 5 20 10 0 6 -9 10 -20 10 -12 0 -20 7 -20 16 0 12 7 15 30 12 20
-3 30 0 30 9 0 17 -42 17 -59 1 -10 -9 -15 -10 -18 -2 -2 6 -15 9 -28 6 -15
-2 -25 0 -25 7 0 6 -7 11 -15 11 -8 0 -15 -4 -15 -9z"/>
<path d="M800 660 c0 -5 5 -10 11 -10 5 0 7 5 4 10 -3 6 -8 10 -11 10 -2 0 -4
-4 -4 -10z"/>
<path d="M215 650 c-28 -7 -28 -8 -5 -9 14 0 32 4 40 9 17 11 8 11 -35 0z"/>
<path d="M525 650 c-3 -5 -1 -10 4 -10 6 0 11 5 11 10 0 6 -2 10 -4 10 -3 0
-8 -4 -11 -10z"/>
<path d="M126 605 c-11 -8 -26 -15 -34 -15 -7 0 -20 -7 -29 -15 -9 -10 -23
-13 -35 -9 -17 5 -19 3 -13 -18 4 -12 11 -24 15 -26 12 -5 -2 -62 -16 -62 -8
0 -14 -10 -14 -25 0 -14 5 -25 10 -25 6 0 10 7 10 14 0 8 11 27 25 42 26 28
33 54 15 54 -5 0 -10 10 -10 22 0 19 1 20 18 6 9 -9 32 -19 49 -23 28 -5 32
-4 27 9 -4 12 0 16 15 16 12 0 21 5 21 10 0 6 -11 10 -25 10 -35 0 -31 19 5
27 17 3 30 9 30 14 0 14 -43 10 -64 -6z m-6 -45 c0 -5 -9 -10 -20 -10 -11 0
-20 5 -20 10 0 6 9 10 20 10 11 0 20 -4 20 -10z"/>
<path d="M4058 613 c7 -3 16 -2 19 1 4 3 -2 6 -13 5 -11 0 -14 -3 -6 -6z"/>
<path d="M3248 603 c6 -2 18 -2 25 0 6 3 1 5 -13 5 -14 0 -19 -2 -12 -5z"/>
<path d="M4104 601 c19 -7 19 -8 1 -15 -11 -4 -22 -2 -26 6 -4 7 -12 9 -16 4
-4 -5 -2 -11 5 -13 7 -3 12 -22 12 -46 0 -38 -1 -39 -15 -21 -13 18 -14 17
-15 -18 0 -21 -4 -38 -9 -38 -13 0 -21 27 -15 48 3 9 -2 5 -11 -11 -14 -24
-14 -29 -1 -42 8 -8 20 -15 27 -15 10 0 10 -3 0 -12 -11 -10 -14 -10 -18 0 -3
6 -17 12 -31 12 -23 -1 -25 -2 -9 -11 9 -5 17 -14 17 -19 0 -5 -8 -11 -17 -13
-17 -4 -17 -5 0 -6 18 -1 24 -17 7 -23 -5 -1 -7 -14 -3 -26 4 -18 8 -20 14
-10 7 10 9 9 9 -4 0 -10 -4 -18 -9 -18 -5 0 -7 -9 -4 -20 3 -11 10 -20 15 -20
13 0 -12 -24 -41 -39 -21 -12 -21 -13 -5 -25 9 -7 14 -18 10 -24 -4 -7 -1 -12
7 -12 10 0 13 -7 10 -20 -4 -14 2 -22 21 -30 20 -7 26 -16 25 -37 -2 -24 -2
-25 -6 -6 -2 13 -8 23 -13 23 -11 0 -20 -54 -9 -58 5 -2 9 -12 9 -23 0 -26 18
-24 23 3 l4 23 2 -22 c1 -20 7 -23 39 -23 34 0 38 3 40 28 1 15 9 32 17 38 19
14 20 54 1 54 -8 0 -13 8 -12 17 0 10 -9 20 -24 24 l-25 7 27 1 c21 1 25 5 21
21 -3 10 -14 22 -24 25 -27 9 -25 35 2 28 16 -4 20 -2 17 8 -3 8 -12 13 -22
11 -9 -2 -16 4 -16 13 0 8 5 15 11 15 7 0 10 12 7 30 -2 16 0 32 6 34 6 3 1 8
-11 11 -13 4 -23 11 -23 16 0 22 22 61 50 87 16 16 30 38 30 48 0 13 -3 15 -8
7 -4 -7 -19 -14 -32 -15 -34 -4 -37 26 -6 57 14 14 22 25 18 26 -4 0 2 4 13 9
16 7 11 9 -20 9 -28 0 -34 -3 -21 -8z m-74 -231 c0 -5 -2 -10 -4 -10 -3 0 -8
5 -11 10 -3 6 -1 10 4 10 6 0 11 -4 11 -10z m70 -44 c0 -2 -7 -7 -16 -10 -8
-3 -12 -2 -9 4 6 10 25 14 25 6z m-57 -26 c-3 -11 -7 -20 -9 -20 -2 0 -4 9 -4
20 0 11 4 20 9 20 5 0 7 -9 4 -20z m-10 -117 c-9 -22 -28 -9 -31 21 -3 26 -3
26 16 10 11 -9 18 -23 15 -31z m100 -113 c-22 -21 -33 -16 -33 14 0 32 11 39
32 19 17 -15 17 -17 1 -33z"/>
<path d="M260 550 c0 -5 7 -10 15 -10 8 0 15 5 15 10 0 6 -7 10 -15 10 -8 0
-15 -4 -15 -10z"/>
<path d="M242 523 c2 -10 11 -19 21 -21 23 -5 21 10 -4 26 -18 12 -20 11 -17
-5z"/>
<path d="M3265 530 c-3 -5 -1 -10 4 -10 6 0 11 5 11 10 0 6 -2 10 -4 10 -3 0
-8 -4 -11 -10z"/>
<path d="M160 520 c0 -5 7 -10 15 -10 8 0 15 5 15 10 0 6 -7 10 -15 10 -8 0
-15 -4 -15 -10z"/>
<path d="M4485 520 c3 -5 10 -10 16 -10 5 0 9 5 9 10 0 6 -7 10 -16 10 -8 0
-12 -4 -9 -10z"/>
<path d="M80 490 c0 -11 14 -11 50 0 22 7 21 8 -12 9 -21 1 -38 -3 -38 -9z"/>
<path d="M110 469 c0 -5 5 -7 10 -4 6 3 10 8 10 11 0 2 -4 4 -10 4 -5 0 -10
-5 -10 -11z"/>
<path d="M185 470 c3 -5 17 -10 31 -10 33 0 31 -18 -3 -23 l-28 -4 30 -1 c17
-1 39 5 49 13 19 15 19 15 -2 15 -12 0 -22 5 -22 10 0 6 -14 10 -31 10 -17 0
-28 -4 -24 -10z"/>
<path d="M4514 448 c8 -38 13 -45 27 -31 7 7 6 18 -2 36 -17 37 -33 34 -25 -5z"/>
<path d="M3920 450 c0 -5 5 -10 10 -10 6 0 10 5 10 10 0 6 -4 10 -10 10 -5 0
-10 -4 -10 -10z"/>
<path d="M4480 439 c0 -5 5 -7 10 -4 6 3 10 8 10 11 0 2 -4 4 -10 4 -5 0 -10
-5 -10 -11z"/>
<path d="M260 405 c0 -17 2 -18 24 -9 23 9 20 24 -4 24 -11 0 -20 -7 -20 -15z"/>
<path d="M151 410 c-17 -38 6 -69 37 -50 15 8 14 9 -5 10 -14 0 -23 8 -26 23
-2 12 -5 20 -6 17z"/>
<path d="M840 400 c0 -5 5 -10 10 -10 6 0 10 5 10 10 0 6 -4 10 -10 10 -5 0
-10 -4 -10 -10z"/>
<path d="M888 403 c6 -2 18 -2 25 0 6 3 1 5 -13 5 -14 0 -19 -2 -12 -5z"/>
<path d="M3280 394 c0 -8 5 -12 10 -9 6 4 8 11 5 16 -9 14 -15 11 -15 -7z"/>
<path d="M4115 390 c3 -5 8 -10 11 -10 2 0 4 5 4 10 0 6 -5 10 -11 10 -5 0 -7
-4 -4 -10z"/>
<path d="M4450 385 c15 -18 40 -20 40 -2 0 7 -12 14 -26 15 -22 2 -25 0 -14
-13z"/>
<path d="M4513 371 c0 -24 3 -27 14 -16 7 8 13 21 13 29 0 9 -6 16 -13 16 -8
0 -14 -12 -14 -29z"/>
<path d="M17 373 c-4 -6 0 -18 7 -28 8 -11 16 -14 19 -8 4 6 0 18 -7 28 -8 11
-16 14 -19 8z"/>
<path d="M4400 370 c0 -5 5 -10 10 -10 6 0 10 5 10 10 0 6 -4 10 -10 10 -5 0
-10 -4 -10 -10z"/>
<path d="M100 344 c0 -8 5 -12 10 -9 6 3 10 10 10 16 0 5 -4 9 -10 9 -5 0 -10
-7 -10 -16z"/>
<path d="M255 351 c-6 -11 9 -23 19 -14 9 9 7 23 -3 23 -6 0 -12 -4 -16 -9z"/>
<path d="M145 331 c-3 -5 -1 -12 5 -16 5 -3 10 1 10 9 0 18 -6 21 -15 7z"/>
<path d="M4320 329 c0 -5 5 -7 10 -4 6 3 10 8 10 11 0 2 -4 4 -10 4 -5 0 -10
-5 -10 -11z"/>
<path d="M4385 330 c3 -5 11 -10 16 -10 6 0 7 5 4 10 -3 6 -11 10 -16 10 -6 0
-7 -4 -4 -10z"/>
<path d="M4541 333 c6 -35 -19 -45 -42 -17 -11 14 -13 14 -21 -1 -5 -9 -7 -29
-3 -45 6 -25 3 -31 -19 -41 -14 -7 -26 -16 -26 -21 0 -4 -21 -8 -47 -8 -35 0
-44 -3 -33 -10 13 -8 11 -11 -7 -16 -13 -4 -21 -9 -19 -13 3 -4 1 -13 -4 -21
-7 -11 -11 -12 -25 0 -10 8 -19 10 -25 4 -7 -7 3 -15 26 -23 39 -14 58 -3 47
26 -6 16 19 17 36 0 11 -9 13 -9 7 1 -4 6 -2 12 4 12 7 0 10 -17 8 -47 l-3
-48 -39 -1 c-36 -1 -38 0 -21 12 14 10 15 14 4 14 -23 0 -43 -16 -30 -24 21
-13 11 -42 -16 -52 -21 -7 10 -10 122 -12 87 -1 144 2 136 7 -11 7 -11 10 0
17 10 6 7 10 -11 15 l-25 7 23 7 c18 6 22 15 22 50 0 38 -2 43 -20 38 -23 -6
-25 -14 -8 -31 9 -9 9 -12 -3 -12 -16 0 -39 19 -39 32 0 4 4 8 10 8 5 0 20 11
34 25 23 23 24 29 16 77 -4 31 -4 54 1 56 12 5 11 42 -1 42 -5 0 -9 -3 -9 -7z
m-29 -85 c-14 -14 -17 -11 -26 27 l-7 30 22 -22 c18 -18 21 -25 11 -35z m3
-28 c3 -5 -1 -10 -10 -10 -9 0 -13 5 -10 10 3 6 8 10 10 10 2 0 7 -4 10 -10z
m-120 -40 c-3 -5 -10 -10 -16 -10 -5 0 -9 5 -9 10 0 6 7 10 16 10 8 0 12 -4 9
-10z m53 -130 c-26 -35 -48 -39 -47 -7 0 12 3 16 6 10 7 -19 20 -16 26 7 3 11
12 20 21 20 14 0 13 -5 -6 -30z m47 20 c3 -5 1 -10 -4 -10 -6 0 -11 5 -11 10
0 6 2 10 4 10 3 0 8 -4 11 -10z m-112 -37 c-7 -2 -21 -2 -30 0 -10 3 -4 5 12
5 17 0 24 -2 18 -5z"/>
<path d="M337 324 c-6 -10 9 -42 16 -34 3 3 1 14 -3 24 -3 11 -9 15 -13 10z"/>
<path d="M4392 295 c-11 -12 -10 -15 3 -15 8 0 15 7 15 15 0 18 -2 18 -18 0z"/>
<path d="M90 290 c0 -5 7 -10 15 -10 8 0 15 5 15 10 0 6 -7 10 -15 10 -8 0
-15 -4 -15 -10z"/>
<path d="M740 290 c0 -5 7 -10 16 -10 8 0 12 5 9 10 -3 6 -10 10 -16 10 -5 0
-9 -4 -9 -10z"/>
<path d="M4310 280 c-9 -6 -10 -10 -3 -10 6 0 15 5 18 10 8 12 4 12 -15 0z"/>
<path d="M3 270 c2 -8 16 -16 33 -17 25 -1 26 0 4 4 -14 3 -29 10 -33 17 -6 7
-7 6 -4 -4z"/>
<path d="M325 260 c-3 -5 -1 -10 4 -10 6 0 11 5 11 10 0 6 -2 10 -4 10 -3 0
-8 -4 -11 -10z"/>
<path d="M560 260 c0 -5 5 -10 11 -10 5 0 7 5 4 10 -3 6 -8 10 -11 10 -2 0 -4
-4 -4 -10z"/>
<path d="M848 258 c12 -6 22 -17 22 -25 0 -7 5 -13 10 -13 6 0 10 9 10 19 0
19 -19 32 -48 30 -13 0 -11 -3 6 -11z"/>
<path d="M77 245 c-4 -9 -1 -15 8 -15 7 0 15 -8 17 -17 3 -16 4 -16 10 -1 4
10 -1 23 -11 32 -17 15 -19 15 -24 1z"/>
<path d="M157 240 c3 -11 9 -20 15 -20 5 0 4 9 -2 20 -6 11 -12 20 -14 20 -2
0 -2 -9 1 -20z"/>
<path d="M390 253 c0 -7 -6 -13 -13 -13 -7 0 -22 -7 -33 -15 -16 -12 -17 -16
-4 -24 12 -8 11 -11 -5 -17 -36 -13 -46 -25 -34 -40 6 -8 15 -11 20 -8 5 3 9
0 9 -5 0 -6 -5 -11 -11 -11 -5 0 -9 -8 -8 -17 1 -10 -1 -26 -6 -36 -7 -16 -8
-16 -20 -1 -11 15 -12 15 -18 -5 -4 -17 -1 -21 21 -22 15 0 21 -3 15 -6 -7 -2
-13 -11 -13 -19 0 -12 44 -14 273 -14 l274 0 11 37 c11 35 10 40 -11 55 -12
10 -35 20 -52 24 -16 3 -34 10 -40 14 -5 5 -37 16 -70 25 -56 16 -77 24 -161
60 -18 8 -49 17 -70 21 -22 4 -42 12 -46 18 -5 8 -8 7 -8 -1z m110 -167 c0 -2
-7 -9 -15 -16 -13 -11 -14 -10 -9 4 5 14 24 23 24 12z"/>
<path d="M4152 235 c-6 -14 -8 -25 -3 -25 8 0 23 41 17 47 -1 2 -8 -8 -14 -22z"/>
<path d="M0 229 c0 -5 5 -7 10 -4 5 3 10 8 10 11 0 2 -4 4 -10 4 -5 0 -10 -5
-10 -11z"/>
<path d="M3921 224 c0 -11 3 -14 6 -6 3 7 2 16 -1 19 -3 4 -6 -2 -5 -13z"/>
<path d="M4400 230 c0 -5 5 -10 10 -10 6 0 10 5 10 10 0 6 -4 10 -10 10 -5 0
-10 -4 -10 -10z"/>
<path d="M4285 210 c-3 -6 5 -10 19 -10 14 0 28 5 31 10 3 6 -5 10 -19 10 -14
0 -28 -4 -31 -10z"/>
<path d="M2 190 c0 -14 2 -19 5 -12 2 6 2 18 0 25 -3 6 -5 1 -5 -13z"/>
<path d="M30 200 c0 -5 4 -10 9 -10 6 0 13 5 16 10 3 6 -1 10 -9 10 -9 0 -16
-4 -16 -10z"/>
<path d="M70 185 c0 -16 16 -20 24 -6 3 5 -1 11 -9 15 -9 3 -15 0 -15 -9z"/>
<path d="M3905 190 c-3 -5 -1 -10 4 -10 6 0 11 5 11 10 0 6 -2 10 -4 10 -3 0
-8 -4 -11 -10z"/>
<path d="M3935 171 c-8 -15 3 -31 21 -31 9 0 14 7 12 17 -4 20 -24 28 -33 14z"/>
<path d="M785 160 c3 -5 8 -10 11 -10 2 0 4 5 4 10 0 6 -5 10 -11 10 -5 0 -7
-4 -4 -10z"/>
<path d="M72 140 c0 -14 2 -19 5 -12 2 6 2 18 0 25 -3 6 -5 1 -5 -13z"/>
<path d="M876 148 c3 -4 9 -8 15 -8 5 0 9 4 9 8 0 5 -7 9 -15 9 -8 0 -12 -4
-9 -9z"/>
<path d="M3912 145 c-1 -33 13 -61 23 -46 4 7 3 16 -3 20 -5 3 -12 15 -15 26
l-5 20 0 -20z"/>
<path d="M1 134 c0 -11 3 -14 6 -6 3 7 2 16 -1 19 -3 4 -6 -2 -5 -13z"/>
<path d="M240 136 c0 -4 7 -14 15 -22 8 -9 15 -11 15 -6 0 5 -7 15 -15 22 -8
7 -15 9 -15 6z"/>
<path d="M925 130 c-3 -5 1 -10 9 -10 9 0 16 5 16 10 0 6 -4 10 -9 10 -6 0
-13 -4 -16 -10z"/>
<path d="M17 116 c-16 -12 -24 -36 -11 -36 16 0 44 23 44 35 0 18 -10 19 -33
1z"/>
<path d="M3967 96 c-3 -8 2 -16 14 -19 15 -4 18 -2 10 7 -6 7 -8 16 -4 19 3 4
2 7 -4 7 -6 0 -13 -6 -16 -14z"/>
<path d="M96 85 c-8 -22 -3 -28 19 -23 14 3 14 5 2 22 -13 18 -14 18 -21 1z"/>
<path d="M4275 90 c-3 -5 -2 -10 4 -10 5 0 13 5 16 10 3 6 2 10 -4 10 -5 0
-13 -4 -16 -10z"/>
<path d="M65 70 c-3 -5 -1 -10 4 -10 6 0 11 5 11 10 0 6 -2 10 -4 10 -3 0 -8
-4 -11 -10z"/>
<path d="M1511 64 c0 -11 3 -14 6 -6 3 7 2 16 -1 19 -3 4 -6 -2 -5 -13z"/>
<path d="M3754 56 c-3 -13 -4 -33 -1 -43 3 -10 5 -5 6 14 0 17 6 33 13 35 9 3
9 6 0 12 -7 4 -14 -2 -18 -18z"/>
<path d="M3860 70 c0 -5 7 -10 15 -10 8 0 15 5 15 10 0 6 -7 10 -15 10 -8 0
-15 -4 -15 -10z"/>
<path d="M20 50 c-23 -7 -23 -8 -3 -9 12 -1 25 4 28 9 3 6 5 10 3 9 -2 -1 -14
-5 -28 -9z"/>
<path d="M185 50 c-3 -5 1 -10 10 -10 9 0 13 5 10 10 -3 6 -8 10 -10 10 -2 0
-7 -4 -10 -10z"/>
<path d="M952 35 c0 -17 2 -22 5 -12 2 9 2 23 0 30 -3 6 -5 -1 -5 -18z"/>
<path d="M2903 40 c3 -13 0 -20 -9 -20 -8 0 -14 -4 -14 -10 0 -14 36 -12 48 3
7 8 7 17 -2 30 -18 23 -30 22 -23 -3z"/>
<path d="M3940 51 c-14 -3 -26 -13 -26 -22 -1 -15 2 -15 29 -4 17 7 33 18 35
24 4 12 0 12 -38 2z"/>
<path d="M4236 34 c-5 -13 -9 -14 -21 -4 -19 16 -28 9 -19 -14 8 -20 30 -21
38 -1 3 8 12 15 21 15 8 0 15 5 15 10 0 16 -27 11 -34 -6z"/>
<path d="M1080 26 c0 -8 5 -18 10 -21 6 -3 10 3 10 14 0 12 -4 21 -10 21 -5 0
-10 -6 -10 -14z"/>
<path d="M81 14 c0 -11 3 -14 6 -6 3 7 2 16 -1 19 -3 4 -6 -2 -5 -13z"/>
<path d="M240 20 c0 -5 5 -10 10 -10 6 0 10 5 10 10 0 6 -4 10 -10 10 -5 0
-10 -4 -10 -10z"/>
<path d="M3351 14 c0 -11 3 -14 6 -6 3 7 2 16 -1 19 -3 4 -6 -2 -5 -13z"/>
<path d="M3990 16 c0 -9 5 -16 10 -16 6 0 10 4 10 9 0 6 -4 13 -10 16 -5 3
-10 -1 -10 -9z"/>
</g>
</svg>
